<svg xmlns="http://www.w3.org/2000/svg" width="1600" height="1200" viewBox="0 0 1600 1200"><rect width="1600" height="1200" fill="#F1EBDF"/><circle cx="541.4" cy="227.1" r="0.86" fill="#1C1811" opacity="0.023"/>
<circle cx="852.7" cy="456.6" r="0.44" fill="#1C1811" opacity="0.040"/>
<circle cx="121.0" cy="529.1" r="0.45" fill="#1C1811" opacity="0.024"/>
<circle cx="689.2" cy="949.1" r="0.49" fill="#1C1811" opacity="0.029"/>
<circle cx="987.1" cy="1078.2" r="0.80" fill="#1C1811" opacity="0.036"/>
<circle cx="1499.1" cy="115.8" r="1.00" fill="#1C1811" opacity="0.032"/>
<circle cx="277.8" cy="191.8" r="0.62" fill="#1C1811" opacity="0.053"/>
<circle cx="331.3" cy="687.1" r="0.85" fill="#1C1811" opacity="0.035"/>
<circle cx="870.1" cy="133.1" r="0.44" fill="#1C1811" opacity="0.028"/>
<circle cx="1064.8" cy="522.7" r="0.62" fill="#1C1811" opacity="0.043"/>
<circle cx="731.3" cy="386.2" r="0.96" fill="#1C1811" opacity="0.048"/>
<circle cx="424.3" cy="679.5" r="0.77" fill="#1C1811" opacity="0.055"/>
<circle cx="1136.8" cy="373.5" r="1.09" fill="#1C1811" opacity="0.025"/>
<circle cx="679.8" cy="874.6" r="0.51" fill="#1C1811" opacity="0.040"/>
<circle cx="123.6" cy="779.7" r="0.94" fill="#1C1811" opacity="0.043"/>
<circle cx="1351.2" cy="401.1" r="0.89" fill="#1C1811" opacity="0.044"/>
<circle cx="917.3" cy="553.2" r="0.99" fill="#1C1811" opacity="0.058"/>
<circle cx="762.0" cy="775.3" r="0.44" fill="#1C1811" opacity="0.048"/>
<circle cx="1016.0" cy="1126.6" r="0.98" fill="#1C1811" opacity="0.031"/>
<circle cx="632.3" cy="780.1" r="0.42" fill="#1C1811" opacity="0.038"/>
<circle cx="312.7" cy="191.1" r="0.44" fill="#1C1811" opacity="0.051"/>
<circle cx="255.9" cy="330.5" r="0.67" fill="#1C1811" opacity="0.055"/>
<circle cx="184.3" cy="545.7" r="0.78" fill="#1C1811" opacity="0.055"/>
<circle cx="1268.7" cy="988.7" r="0.59" fill="#1C1811" opacity="0.037"/>
<circle cx="592.7" cy="1010.3" r="1.07" fill="#1C1811" opacity="0.026"/>
<circle cx="324.7" cy="313.7" r="0.56" fill="#1C1811" opacity="0.039"/>
<circle cx="930.8" cy="346.6" r="0.40" fill="#1C1811" opacity="0.037"/>
<circle cx="608.1" cy="670.9" r="1.07" fill="#1C1811" opacity="0.048"/>
<circle cx="822.7" cy="725.6" r="0.87" fill="#1C1811" opacity="0.022"/>
<circle cx="1386.5" cy="899.0" r="1.01" fill="#1C1811" opacity="0.052"/>
<circle cx="642.0" cy="492.1" r="0.47" fill="#1C1811" opacity="0.045"/>
<circle cx="157.4" cy="137.9" r="0.55" fill="#1C1811" opacity="0.026"/>
<circle cx="565.2" cy="122.2" r="0.40" fill="#1C1811" opacity="0.026"/>
<circle cx="214.9" cy="454.3" r="0.42" fill="#1C1811" opacity="0.055"/>
<circle cx="967.5" cy="224.7" r="0.58" fill="#1C1811" opacity="0.034"/>
<circle cx="600.6" cy="197.2" r="0.99" fill="#1C1811" opacity="0.060"/>
<circle cx="750.1" cy="582.7" r="0.46" fill="#1C1811" opacity="0.024"/>
<circle cx="569.0" cy="348.8" r="0.98" fill="#1C1811" opacity="0.026"/>
<circle cx="99.9" cy="1081.7" r="0.77" fill="#1C1811" opacity="0.026"/>
<circle cx="863.4" cy="94.9" r="0.77" fill="#1C1811" opacity="0.059"/>
<circle cx="1333.4" cy="809.5" r="0.58" fill="#1C1811" opacity="0.035"/>
<circle cx="311.2" cy="890.4" r="0.77" fill="#1C1811" opacity="0.051"/>
<circle cx="549.9" cy="304.2" r="0.97" fill="#1C1811" opacity="0.059"/>
<circle cx="1317.7" cy="926.9" r="0.97" fill="#1C1811" opacity="0.050"/>
<circle cx="398.9" cy="618.8" r="0.65" fill="#1C1811" opacity="0.021"/>
<circle cx="107.0" cy="364.4" r="0.58" fill="#1C1811" opacity="0.048"/>
<circle cx="1470.2" cy="543.6" r="1.06" fill="#1C1811" opacity="0.060"/>
<circle cx="1467.9" cy="455.4" r="0.55" fill="#1C1811" opacity="0.029"/>
<circle cx="354.8" cy="284.3" r="0.84" fill="#1C1811" opacity="0.056"/>
<circle cx="1299.8" cy="578.1" r="0.86" fill="#1C1811" opacity="0.052"/>
<circle cx="190.5" cy="771.5" r="1.04" fill="#1C1811" opacity="0.051"/>
<circle cx="1167.2" cy="576.5" r="0.52" fill="#1C1811" opacity="0.052"/>
<circle cx="554.1" cy="921.3" r="1.08" fill="#1C1811" opacity="0.036"/>
<circle cx="655.2" cy="1077.2" r="0.91" fill="#1C1811" opacity="0.027"/>
<circle cx="252.5" cy="227.4" r="1.03" fill="#1C1811" opacity="0.052"/>
<circle cx="280.6" cy="948.7" r="1.09" fill="#1C1811" opacity="0.046"/>
<circle cx="580.4" cy="652.0" r="0.49" fill="#1C1811" opacity="0.021"/>
<circle cx="1491.3" cy="759.9" r="0.77" fill="#1C1811" opacity="0.057"/>
<circle cx="702.8" cy="997.0" r="0.98" fill="#1C1811" opacity="0.028"/>
<circle cx="435.7" cy="378.9" r="0.57" fill="#1C1811" opacity="0.043"/>
<circle cx="446.7" cy="513.5" r="0.49" fill="#1C1811" opacity="0.056"/>
<circle cx="585.4" cy="555.3" r="0.81" fill="#1C1811" opacity="0.056"/>
<circle cx="683.5" cy="1046.1" r="0.75" fill="#1C1811" opacity="0.041"/>
<circle cx="834.5" cy="86.0" r="0.71" fill="#1C1811" opacity="0.027"/>
<circle cx="71.8" cy="919.5" r="0.52" fill="#1C1811" opacity="0.039"/>
<circle cx="1130.6" cy="660.3" r="0.63" fill="#1C1811" opacity="0.041"/>
<circle cx="881.4" cy="903.6" r="0.47" fill="#1C1811" opacity="0.042"/>
<circle cx="430.8" cy="361.7" r="0.94" fill="#1C1811" opacity="0.040"/>
<circle cx="890.6" cy="877.7" r="1.04" fill="#1C1811" opacity="0.038"/>
<circle cx="965.2" cy="605.9" r="0.76" fill="#1C1811" opacity="0.048"/>
<circle cx="730.0" cy="635.5" r="0.73" fill="#1C1811" opacity="0.058"/>
<circle cx="1092.5" cy="1002.1" r="1.06" fill="#1C1811" opacity="0.030"/>
<circle cx="887.4" cy="1073.4" r="0.99" fill="#1C1811" opacity="0.025"/>
<circle cx="244.5" cy="538.2" r="0.45" fill="#1C1811" opacity="0.030"/>
<circle cx="173.3" cy="781.0" r="0.95" fill="#1C1811" opacity="0.056"/>
<circle cx="292.7" cy="830.8" r="0.86" fill="#1C1811" opacity="0.026"/>
<circle cx="1362.0" cy="1099.3" r="0.55" fill="#1C1811" opacity="0.058"/>
<circle cx="650.6" cy="586.4" r="1.09" fill="#1C1811" opacity="0.053"/>
<circle cx="303.0" cy="526.9" r="0.76" fill="#1C1811" opacity="0.034"/>
<circle cx="353.4" cy="406.2" r="0.91" fill="#1C1811" opacity="0.021"/>
<circle cx="879.3" cy="536.4" r="0.41" fill="#1C1811" opacity="0.033"/>
<circle cx="981.9" cy="613.1" r="0.45" fill="#1C1811" opacity="0.059"/>
<circle cx="1223.3" cy="1103.8" r="0.47" fill="#1C1811" opacity="0.031"/>
<circle cx="124.1" cy="898.0" r="0.59" fill="#1C1811" opacity="0.025"/>
<circle cx="685.9" cy="1039.4" r="0.97" fill="#1C1811" opacity="0.030"/>
<circle cx="285.3" cy="1047.7" r="0.80" fill="#1C1811" opacity="0.048"/>
<circle cx="197.3" cy="127.4" r="0.88" fill="#1C1811" opacity="0.037"/>
<circle cx="172.3" cy="1068.2" r="0.84" fill="#1C1811" opacity="0.052"/>
<circle cx="188.9" cy="980.5" r="0.45" fill="#1C1811" opacity="0.055"/>
<circle cx="732.1" cy="428.2" r="0.79" fill="#1C1811" opacity="0.057"/>
<circle cx="459.2" cy="204.0" r="0.77" fill="#1C1811" opacity="0.030"/>
<circle cx="226.7" cy="238.4" r="0.44" fill="#1C1811" opacity="0.028"/>
<circle cx="524.0" cy="391.7" r="0.93" fill="#1C1811" opacity="0.032"/>
<circle cx="800.1" cy="256.0" r="0.64" fill="#1C1811" opacity="0.021"/>
<circle cx="433.7" cy="82.4" r="0.91" fill="#1C1811" opacity="0.042"/>
<circle cx="344.1" cy="573.0" r="1.05" fill="#1C1811" opacity="0.024"/>
<circle cx="1268.2" cy="527.6" r="0.75" fill="#1C1811" opacity="0.053"/>
<circle cx="643.1" cy="607.1" r="0.88" fill="#1C1811" opacity="0.059"/>
<circle cx="569.1" cy="954.9" r="0.89" fill="#1C1811" opacity="0.045"/>
<circle cx="660.1" cy="437.2" r="0.44" fill="#1C1811" opacity="0.025"/>
<circle cx="169.8" cy="857.3" r="0.58" fill="#1C1811" opacity="0.027"/>
<circle cx="190.0" cy="964.5" r="1.01" fill="#1C1811" opacity="0.047"/>
<circle cx="479.9" cy="324.7" r="0.61" fill="#1C1811" opacity="0.038"/>
<circle cx="297.3" cy="542.1" r="0.58" fill="#1C1811" opacity="0.058"/>
<circle cx="1493.8" cy="650.3" r="0.57" fill="#1C1811" opacity="0.059"/>
<circle cx="520.4" cy="446.8" r="0.40" fill="#1C1811" opacity="0.035"/>
<circle cx="762.8" cy="603.0" r="0.54" fill="#1C1811" opacity="0.040"/>
<circle cx="73.3" cy="348.1" r="0.46" fill="#1C1811" opacity="0.036"/>
<circle cx="127.2" cy="90.0" r="0.61" fill="#1C1811" opacity="0.029"/>
<circle cx="925.6" cy="631.2" r="0.93" fill="#1C1811" opacity="0.046"/>
<circle cx="1117.1" cy="1004.9" r="0.67" fill="#1C1811" opacity="0.033"/>
<circle cx="1511.6" cy="225.6" r="0.91" fill="#1C1811" opacity="0.046"/>
<circle cx="130.3" cy="958.1" r="1.02" fill="#1C1811" opacity="0.045"/>
<circle cx="1143.3" cy="933.4" r="0.50" fill="#1C1811" opacity="0.041"/>
<circle cx="806.4" cy="957.7" r="0.96" fill="#1C1811" opacity="0.053"/>
<circle cx="923.4" cy="1019.5" r="0.88" fill="#1C1811" opacity="0.048"/>
<circle cx="403.6" cy="99.3" r="0.49" fill="#1C1811" opacity="0.034"/>
<circle cx="220.0" cy="958.7" r="0.79" fill="#1C1811" opacity="0.045"/>
<circle cx="985.3" cy="792.9" r="0.74" fill="#1C1811" opacity="0.020"/>
<circle cx="1237.0" cy="865.1" r="0.75" fill="#1C1811" opacity="0.041"/>
<circle cx="1033.9" cy="136.5" r="0.92" fill="#1C1811" opacity="0.030"/>
<circle cx="175.3" cy="349.6" r="0.91" fill="#1C1811" opacity="0.028"/>
<circle cx="1152.1" cy="1108.1" r="0.75" fill="#1C1811" opacity="0.035"/>
<circle cx="769.2" cy="796.2" r="0.94" fill="#1C1811" opacity="0.045"/>
<circle cx="1009.6" cy="148.7" r="0.50" fill="#1C1811" opacity="0.030"/>
<circle cx="1157.0" cy="391.1" r="0.80" fill="#1C1811" opacity="0.020"/>
<circle cx="155.1" cy="353.0" r="0.87" fill="#1C1811" opacity="0.048"/>
<circle cx="1057.9" cy="376.6" r="0.76" fill="#1C1811" opacity="0.039"/>
<circle cx="750.6" cy="192.6" r="1.03" fill="#1C1811" opacity="0.028"/>
<circle cx="1501.9" cy="1065.9" r="0.41" fill="#1C1811" opacity="0.038"/>
<circle cx="1269.6" cy="1099.9" r="0.71" fill="#1C1811" opacity="0.031"/>
<circle cx="374.0" cy="1075.9" r="0.55" fill="#1C1811" opacity="0.043"/>
<circle cx="274.1" cy="625.7" r="1.07" fill="#1C1811" opacity="0.025"/>
<circle cx="1270.1" cy="609.3" r="1.02" fill="#1C1811" opacity="0.048"/>
<circle cx="405.7" cy="1024.7" r="0.74" fill="#1C1811" opacity="0.021"/>
<circle cx="71.3" cy="591.1" r="0.72" fill="#1C1811" opacity="0.032"/>
<circle cx="272.6" cy="433.3" r="0.62" fill="#1C1811" opacity="0.054"/>
<circle cx="68.6" cy="867.8" r="0.99" fill="#1C1811" opacity="0.025"/>
<circle cx="1426.0" cy="827.5" r="1.03" fill="#1C1811" opacity="0.032"/>
<circle cx="612.4" cy="485.6" r="1.10" fill="#1C1811" opacity="0.044"/>
<circle cx="595.5" cy="523.2" r="0.59" fill="#1C1811" opacity="0.022"/>
<circle cx="215.3" cy="957.4" r="0.60" fill="#1C1811" opacity="0.057"/>
<circle cx="432.0" cy="349.8" r="0.76" fill="#1C1811" opacity="0.028"/>
<circle cx="614.1" cy="1087.2" r="1.02" fill="#1C1811" opacity="0.052"/>
<circle cx="992.2" cy="1041.5" r="1.06" fill="#1C1811" opacity="0.042"/>
<circle cx="1122.3" cy="118.8" r="0.91" fill="#1C1811" opacity="0.038"/>
<circle cx="1170.9" cy="754.3" r="0.60" fill="#1C1811" opacity="0.022"/>
<circle cx="1426.5" cy="202.0" r="0.73" fill="#1C1811" opacity="0.034"/>
<circle cx="503.1" cy="855.3" r="1.08" fill="#1C1811" opacity="0.030"/>
<circle cx="1029.0" cy="387.3" r="0.79" fill="#1C1811" opacity="0.036"/>
<circle cx="311.6" cy="238.6" r="0.55" fill="#1C1811" opacity="0.056"/>
<circle cx="795.7" cy="301.0" r="1.03" fill="#1C1811" opacity="0.060"/>
<circle cx="726.5" cy="215.1" r="0.53" fill="#1C1811" opacity="0.024"/>
<circle cx="568.0" cy="163.3" r="0.57" fill="#1C1811" opacity="0.030"/>
<circle cx="902.2" cy="1013.6" r="0.92" fill="#1C1811" opacity="0.037"/>
<circle cx="673.6" cy="625.8" r="0.66" fill="#1C1811" opacity="0.034"/>
<circle cx="157.1" cy="362.4" r="1.08" fill="#1C1811" opacity="0.025"/>
<circle cx="805.0" cy="738.4" r="1.00" fill="#1C1811" opacity="0.029"/>
<circle cx="463.9" cy="331.3" r="0.68" fill="#1C1811" opacity="0.038"/>
<circle cx="1466.4" cy="972.4" r="1.01" fill="#1C1811" opacity="0.021"/>
<circle cx="113.3" cy="823.8" r="1.03" fill="#1C1811" opacity="0.039"/>
<circle cx="928.0" cy="66.2" r="0.67" fill="#1C1811" opacity="0.057"/>
<circle cx="1278.0" cy="979.6" r="1.08" fill="#1C1811" opacity="0.030"/>
<circle cx="226.1" cy="230.9" r="0.77" fill="#1C1811" opacity="0.047"/>
<circle cx="1448.1" cy="836.8" r="0.85" fill="#1C1811" opacity="0.051"/>
<circle cx="737.4" cy="655.0" r="0.43" fill="#1C1811" opacity="0.051"/>
<circle cx="407.4" cy="1048.5" r="0.85" fill="#1C1811" opacity="0.032"/>
<circle cx="253.9" cy="334.9" r="0.85" fill="#1C1811" opacity="0.048"/>
<circle cx="230.6" cy="141.1" r="0.77" fill="#1C1811" opacity="0.043"/>
<circle cx="635.7" cy="304.8" r="0.82" fill="#1C1811" opacity="0.020"/>
<circle cx="508.6" cy="558.0" r="1.07" fill="#1C1811" opacity="0.046"/>
<circle cx="1363.4" cy="573.6" r="0.56" fill="#1C1811" opacity="0.030"/>
<circle cx="1476.2" cy="818.6" r="0.62" fill="#1C1811" opacity="0.021"/>
<circle cx="797.5" cy="786.3" r="0.69" fill="#1C1811" opacity="0.030"/>
<circle cx="1045.7" cy="1054.1" r="0.56" fill="#1C1811" opacity="0.021"/>
<circle cx="562.3" cy="515.2" r="0.88" fill="#1C1811" opacity="0.028"/>
<circle cx="1236.1" cy="855.4" r="0.75" fill="#1C1811" opacity="0.028"/>
<circle cx="1489.8" cy="398.9" r="0.97" fill="#1C1811" opacity="0.029"/>
<circle cx="391.1" cy="878.2" r="0.61" fill="#1C1811" opacity="0.058"/>
<circle cx="793.8" cy="266.1" r="0.56" fill="#1C1811" opacity="0.037"/>
<circle cx="1042.7" cy="1079.3" r="0.50" fill="#1C1811" opacity="0.036"/>
<circle cx="378.6" cy="1106.4" r="0.50" fill="#1C1811" opacity="0.022"/>
<circle cx="154.3" cy="486.1" r="1.03" fill="#1C1811" opacity="0.055"/>
<circle cx="1141.6" cy="1131.4" r="1.05" fill="#1C1811" opacity="0.033"/>
<circle cx="338.3" cy="1065.5" r="0.92" fill="#1C1811" opacity="0.021"/>
<circle cx="1041.4" cy="470.4" r="0.66" fill="#1C1811" opacity="0.033"/>
<circle cx="314.5" cy="69.1" r="0.60" fill="#1C1811" opacity="0.034"/>
<circle cx="1468.7" cy="198.1" r="1.07" fill="#1C1811" opacity="0.028"/>
<circle cx="589.5" cy="943.4" r="0.98" fill="#1C1811" opacity="0.037"/>
<circle cx="138.3" cy="571.7" r="0.66" fill="#1C1811" opacity="0.057"/>
<circle cx="349.4" cy="455.0" r="1.03" fill="#1C1811" opacity="0.021"/>
<circle cx="669.1" cy="933.0" r="0.94" fill="#1C1811" opacity="0.022"/>
<circle cx="117.2" cy="132.8" r="1.04" fill="#1C1811" opacity="0.030"/>
<circle cx="1163.0" cy="1025.7" r="0.64" fill="#1C1811" opacity="0.031"/>
<circle cx="1471.9" cy="724.9" r="0.58" fill="#1C1811" opacity="0.049"/>
<circle cx="530.6" cy="360.4" r="0.40" fill="#1C1811" opacity="0.050"/>
<circle cx="1411.4" cy="743.1" r="1.06" fill="#1C1811" opacity="0.021"/>
<circle cx="409.3" cy="573.5" r="1.07" fill="#1C1811" opacity="0.058"/>
<circle cx="633.4" cy="334.1" r="0.70" fill="#1C1811" opacity="0.040"/>
<circle cx="1428.4" cy="261.4" r="0.96" fill="#1C1811" opacity="0.050"/>
<circle cx="1273.8" cy="891.4" r="0.83" fill="#1C1811" opacity="0.033"/>
<circle cx="535.1" cy="452.5" r="0.95" fill="#1C1811" opacity="0.023"/>
<circle cx="355.7" cy="870.1" r="0.57" fill="#1C1811" opacity="0.023"/>
<circle cx="115.7" cy="656.2" r="0.63" fill="#1C1811" opacity="0.059"/>
<circle cx="1362.9" cy="1121.0" r="0.59" fill="#1C1811" opacity="0.023"/>
<circle cx="207.5" cy="598.4" r="0.90" fill="#1C1811" opacity="0.038"/>
<circle cx="409.8" cy="511.2" r="0.83" fill="#1C1811" opacity="0.047"/>
<circle cx="1164.0" cy="970.6" r="0.87" fill="#1C1811" opacity="0.025"/>
<circle cx="1300.4" cy="379.8" r="0.80" fill="#1C1811" opacity="0.035"/>
<circle cx="1149.5" cy="278.7" r="0.57" fill="#1C1811" opacity="0.030"/>
<circle cx="291.1" cy="1010.3" r="0.80" fill="#1C1811" opacity="0.033"/>
<circle cx="647.4" cy="1125.9" r="0.76" fill="#1C1811" opacity="0.029"/>
<circle cx="1252.8" cy="763.8" r="1.09" fill="#1C1811" opacity="0.024"/>
<circle cx="763.0" cy="940.8" r="0.99" fill="#1C1811" opacity="0.057"/>
<circle cx="125.3" cy="379.6" r="0.48" fill="#1C1811" opacity="0.028"/>
<circle cx="1494.3" cy="688.9" r="1.05" fill="#1C1811" opacity="0.035"/>
<circle cx="1337.5" cy="545.7" r="0.58" fill="#1C1811" opacity="0.051"/>
<circle cx="1454.3" cy="179.0" r="0.82" fill="#1C1811" opacity="0.045"/>
<circle cx="385.5" cy="459.8" r="0.50" fill="#1C1811" opacity="0.028"/>
<circle cx="440.2" cy="706.2" r="0.86" fill="#1C1811" opacity="0.028"/>
<circle cx="82.7" cy="415.5" r="0.87" fill="#1C1811" opacity="0.027"/>
<circle cx="524.3" cy="283.2" r="0.96" fill="#1C1811" opacity="0.042"/>
<circle cx="158.9" cy="174.3" r="0.68" fill="#1C1811" opacity="0.042"/>
<circle cx="1004.3" cy="163.4" r="0.51" fill="#1C1811" opacity="0.048"/>
<circle cx="667.6" cy="368.6" r="0.62" fill="#1C1811" opacity="0.058"/>
<circle cx="524.5" cy="671.0" r="0.65" fill="#1C1811" opacity="0.037"/>
<circle cx="1334.7" cy="1130.4" r="0.65" fill="#1C1811" opacity="0.028"/>
<circle cx="1134.8" cy="283.5" r="0.40" fill="#1C1811" opacity="0.056"/>
<circle cx="688.1" cy="942.2" r="0.68" fill="#1C1811" opacity="0.055"/>
<circle cx="742.6" cy="239.6" r="0.41" fill="#1C1811" opacity="0.042"/>
<circle cx="1006.5" cy="1037.7" r="0.46" fill="#1C1811" opacity="0.045"/>
<circle cx="610.4" cy="604.8" r="0.50" fill="#1C1811" opacity="0.031"/>
<circle cx="831.1" cy="1054.4" r="0.48" fill="#1C1811" opacity="0.040"/>
<circle cx="1247.5" cy="1098.6" r="0.54" fill="#1C1811" opacity="0.025"/>
<circle cx="1450.4" cy="1107.9" r="0.74" fill="#1C1811" opacity="0.022"/>
<circle cx="1425.6" cy="480.3" r="1.03" fill="#1C1811" opacity="0.045"/>
<circle cx="1276.4" cy="237.2" r="0.95" fill="#1C1811" opacity="0.029"/>
<circle cx="659.8" cy="969.9" r="0.98" fill="#1C1811" opacity="0.027"/>
<circle cx="386.2" cy="492.9" r="0.76" fill="#1C1811" opacity="0.035"/>
<circle cx="246.6" cy="329.9" r="0.91" fill="#1C1811" opacity="0.056"/>
<circle cx="126.3" cy="666.6" r="0.93" fill="#1C1811" opacity="0.022"/>
<circle cx="1296.5" cy="191.7" r="0.82" fill="#1C1811" opacity="0.042"/>
<circle cx="986.5" cy="393.0" r="0.69" fill="#1C1811" opacity="0.043"/>
<circle cx="691.0" cy="769.6" r="0.71" fill="#1C1811" opacity="0.038"/>
<circle cx="100.3" cy="727.0" r="0.74" fill="#1C1811" opacity="0.029"/>
<circle cx="1186.9" cy="899.0" r="0.72" fill="#1C1811" opacity="0.027"/>
<circle cx="760.7" cy="180.4" r="0.49" fill="#1C1811" opacity="0.037"/>
<circle cx="200.6" cy="538.0" r="0.76" fill="#1C1811" opacity="0.022"/>
<circle cx="1000.3" cy="153.8" r="0.91" fill="#1C1811" opacity="0.051"/>
<circle cx="816.9" cy="124.0" r="0.75" fill="#1C1811" opacity="0.035"/>
<circle cx="1461.9" cy="211.4" r="1.00" fill="#1C1811" opacity="0.060"/>
<circle cx="1140.7" cy="936.4" r="0.54" fill="#1C1811" opacity="0.059"/>
<circle cx="788.1" cy="1087.7" r="1.04" fill="#1C1811" opacity="0.027"/>
<circle cx="1223.3" cy="1059.9" r="0.45" fill="#1C1811" opacity="0.034"/>
<circle cx="1176.1" cy="235.6" r="1.03" fill="#1C1811" opacity="0.031"/>
<circle cx="1263.3" cy="219.3" r="0.75" fill="#1C1811" opacity="0.057"/>
<circle cx="371.8" cy="346.7" r="0.75" fill="#1C1811" opacity="0.033"/>
<circle cx="120.1" cy="260.5" r="0.51" fill="#1C1811" opacity="0.057"/>
<circle cx="1063.8" cy="1022.3" r="0.52" fill="#1C1811" opacity="0.051"/>
<circle cx="234.9" cy="632.8" r="0.85" fill="#1C1811" opacity="0.034"/>
<circle cx="1347.5" cy="658.9" r="0.81" fill="#1C1811" opacity="0.055"/>
<circle cx="219.6" cy="1126.5" r="0.84" fill="#1C1811" opacity="0.036"/>
<circle cx="1237.0" cy="348.8" r="1.09" fill="#1C1811" opacity="0.043"/>
<circle cx="594.8" cy="882.6" r="0.71" fill="#1C1811" opacity="0.027"/>
<circle cx="1157.6" cy="117.6" r="0.97" fill="#1C1811" opacity="0.030"/>
<circle cx="1004.4" cy="1117.0" r="0.81" fill="#1C1811" opacity="0.047"/>
<circle cx="525.0" cy="67.9" r="0.42" fill="#1C1811" opacity="0.026"/>
<circle cx="970.4" cy="527.6" r="0.76" fill="#1C1811" opacity="0.056"/>
<circle cx="259.8" cy="308.7" r="0.86" fill="#1C1811" opacity="0.021"/>
<circle cx="69.8" cy="445.1" r="0.47" fill="#1C1811" opacity="0.034"/>
<circle cx="395.2" cy="689.3" r="0.81" fill="#1C1811" opacity="0.028"/>
<circle cx="981.9" cy="573.2" r="0.49" fill="#1C1811" opacity="0.057"/>
<circle cx="423.6" cy="225.5" r="0.47" fill="#1C1811" opacity="0.046"/>
<circle cx="1345.0" cy="901.3" r="0.68" fill="#1C1811" opacity="0.031"/>
<circle cx="82.9" cy="754.8" r="0.79" fill="#1C1811" opacity="0.034"/>
<circle cx="1013.7" cy="539.9" r="1.06" fill="#1C1811" opacity="0.049"/>
<circle cx="430.8" cy="1030.9" r="0.43" fill="#1C1811" opacity="0.041"/>
<circle cx="662.0" cy="319.8" r="0.44" fill="#1C1811" opacity="0.051"/>
<circle cx="84.1" cy="654.4" r="1.06" fill="#1C1811" opacity="0.026"/>
<circle cx="358.9" cy="715.4" r="0.75" fill="#1C1811" opacity="0.046"/>
<circle cx="1260.0" cy="252.5" r="0.62" fill="#1C1811" opacity="0.032"/>
<circle cx="137.2" cy="1015.8" r="0.95" fill="#1C1811" opacity="0.049"/>
<circle cx="75.3" cy="967.9" r="0.92" fill="#1C1811" opacity="0.039"/>
<circle cx="1154.9" cy="549.3" r="0.56" fill="#1C1811" opacity="0.024"/>
<circle cx="407.0" cy="107.5" r="0.63" fill="#1C1811" opacity="0.050"/>
<circle cx="1086.4" cy="968.8" r="0.90" fill="#1C1811" opacity="0.031"/>
<circle cx="879.0" cy="531.7" r="0.95" fill="#1C1811" opacity="0.041"/>
<circle cx="455.5" cy="751.7" r="1.08" fill="#1C1811" opacity="0.029"/>
<circle cx="1357.9" cy="82.3" r="0.58" fill="#1C1811" opacity="0.029"/>
<circle cx="1158.0" cy="1074.9" r="0.92" fill="#1C1811" opacity="0.033"/>
<circle cx="1358.1" cy="416.9" r="0.57" fill="#1C1811" opacity="0.056"/>
<circle cx="991.9" cy="806.0" r="0.87" fill="#1C1811" opacity="0.059"/>
<circle cx="755.2" cy="962.8" r="0.89" fill="#1C1811" opacity="0.054"/>
<circle cx="707.8" cy="839.9" r="0.80" fill="#1C1811" opacity="0.032"/>
<circle cx="377.2" cy="731.0" r="0.45" fill="#1C1811" opacity="0.056"/>
<circle cx="278.3" cy="94.7" r="0.47" fill="#1C1811" opacity="0.057"/>
<circle cx="572.3" cy="217.5" r="0.42" fill="#1C1811" opacity="0.022"/>
<circle cx="1082.8" cy="743.0" r="0.89" fill="#1C1811" opacity="0.049"/>
<circle cx="162.5" cy="696.6" r="0.65" fill="#1C1811" opacity="0.053"/>
<circle cx="1269.1" cy="1017.9" r="0.45" fill="#1C1811" opacity="0.055"/>
<circle cx="1408.4" cy="1074.5" r="0.47" fill="#1C1811" opacity="0.028"/>
<circle cx="230.4" cy="102.8" r="0.99" fill="#1C1811" opacity="0.052"/>
<circle cx="997.0" cy="947.2" r="0.84" fill="#1C1811" opacity="0.031"/>
<circle cx="212.6" cy="170.5" r="0.93" fill="#1C1811" opacity="0.028"/>
<circle cx="534.5" cy="518.6" r="0.41" fill="#1C1811" opacity="0.030"/>
<circle cx="480.8" cy="830.4" r="0.66" fill="#1C1811" opacity="0.033"/>
<circle cx="1481.2" cy="604.0" r="1.00" fill="#1C1811" opacity="0.045"/>
<circle cx="111.5" cy="507.0" r="0.71" fill="#1C1811" opacity="0.051"/>
<circle cx="575.1" cy="818.6" r="0.78" fill="#1C1811" opacity="0.029"/>
<circle cx="1331.8" cy="163.1" r="0.97" fill="#1C1811" opacity="0.027"/>
<circle cx="67.9" cy="281.8" r="0.93" fill="#1C1811" opacity="0.059"/>
<circle cx="72.4" cy="590.2" r="0.74" fill="#1C1811" opacity="0.052"/>
<circle cx="336.9" cy="594.2" r="0.64" fill="#1C1811" opacity="0.053"/>
<circle cx="448.5" cy="1074.1" r="0.60" fill="#1C1811" opacity="0.029"/>
<circle cx="1092.8" cy="598.2" r="0.48" fill="#1C1811" opacity="0.045"/>
<circle cx="184.7" cy="907.5" r="0.89" fill="#1C1811" opacity="0.051"/>
<circle cx="987.8" cy="445.8" r="0.68" fill="#1C1811" opacity="0.036"/>
<circle cx="1373.1" cy="158.0" r="1.02" fill="#1C1811" opacity="0.021"/>
<circle cx="368.6" cy="347.1" r="1.03" fill="#1C1811" opacity="0.040"/>
<circle cx="622.8" cy="1010.1" r="0.56" fill="#1C1811" opacity="0.038"/>
<circle cx="846.3" cy="871.8" r="0.93" fill="#1C1811" opacity="0.046"/>
<circle cx="577.6" cy="414.9" r="0.51" fill="#1C1811" opacity="0.054"/>
<circle cx="1038.0" cy="858.4" r="0.52" fill="#1C1811" opacity="0.038"/>
<circle cx="1201.4" cy="684.6" r="0.49" fill="#1C1811" opacity="0.038"/>
<circle cx="1365.4" cy="320.1" r="0.53" fill="#1C1811" opacity="0.032"/>
<circle cx="1098.2" cy="967.0" r="0.51" fill="#1C1811" opacity="0.026"/>
<circle cx="429.4" cy="414.8" r="0.77" fill="#1C1811" opacity="0.026"/>
<circle cx="547.6" cy="268.1" r="1.08" fill="#1C1811" opacity="0.049"/>
<circle cx="215.5" cy="1093.8" r="0.47" fill="#1C1811" opacity="0.035"/>
<circle cx="1510.3" cy="914.9" r="0.91" fill="#1C1811" opacity="0.037"/>
<circle cx="354.0" cy="747.4" r="0.47" fill="#1C1811" opacity="0.028"/>
<circle cx="636.1" cy="102.2" r="0.68" fill="#1C1811" opacity="0.052"/>
<circle cx="1084.0" cy="600.5" r="0.84" fill="#1C1811" opacity="0.039"/>
<circle cx="274.2" cy="710.8" r="0.68" fill="#1C1811" opacity="0.050"/>
<circle cx="1398.9" cy="525.3" r="0.80" fill="#1C1811" opacity="0.050"/>
<circle cx="684.3" cy="310.1" r="0.91" fill="#1C1811" opacity="0.055"/>
<circle cx="1202.3" cy="813.7" r="1.00" fill="#1C1811" opacity="0.047"/>
<circle cx="1007.8" cy="550.8" r="0.62" fill="#1C1811" opacity="0.045"/>
<circle cx="209.7" cy="514.1" r="0.95" fill="#1C1811" opacity="0.049"/>
<circle cx="990.3" cy="333.1" r="0.70" fill="#1C1811" opacity="0.038"/>
<circle cx="978.5" cy="503.2" r="0.87" fill="#1C1811" opacity="0.057"/>
<circle cx="334.7" cy="765.0" r="0.94" fill="#1C1811" opacity="0.036"/>
<circle cx="785.1" cy="1106.9" r="0.43" fill="#1C1811" opacity="0.042"/>
<circle cx="302.1" cy="901.0" r="1.06" fill="#1C1811" opacity="0.041"/>
<circle cx="214.4" cy="679.6" r="0.78" fill="#1C1811" opacity="0.049"/>
<circle cx="817.9" cy="748.7" r="0.98" fill="#1C1811" opacity="0.041"/>
<circle cx="668.4" cy="1078.4" r="0.55" fill="#1C1811" opacity="0.047"/>
<circle cx="642.2" cy="880.6" r="0.49" fill="#1C1811" opacity="0.059"/>
<circle cx="587.8" cy="126.5" r="0.59" fill="#1C1811" opacity="0.036"/>
<circle cx="85.5" cy="513.0" r="0.69" fill="#1C1811" opacity="0.048"/>
<circle cx="582.9" cy="349.2" r="0.56" fill="#1C1811" opacity="0.050"/>
<circle cx="1445.8" cy="628.9" r="0.55" fill="#1C1811" opacity="0.052"/>
<circle cx="641.4" cy="292.4" r="0.49" fill="#1C1811" opacity="0.051"/>
<circle cx="1254.5" cy="743.4" r="0.73" fill="#1C1811" opacity="0.042"/>
<circle cx="397.7" cy="1095.4" r="0.65" fill="#1C1811" opacity="0.046"/>
<circle cx="1267.9" cy="937.7" r="0.73" fill="#1C1811" opacity="0.032"/>
<circle cx="870.9" cy="199.7" r="0.98" fill="#1C1811" opacity="0.034"/>
<circle cx="1314.8" cy="351.6" r="0.66" fill="#1C1811" opacity="0.030"/>
<circle cx="691.5" cy="264.5" r="0.40" fill="#1C1811" opacity="0.049"/>
<circle cx="478.8" cy="327.6" r="0.61" fill="#1C1811" opacity="0.039"/>
<circle cx="695.0" cy="746.6" r="0.86" fill="#1C1811" opacity="0.034"/>
<circle cx="1429.4" cy="978.5" r="0.44" fill="#1C1811" opacity="0.053"/>
<circle cx="1395.7" cy="903.4" r="0.50" fill="#1C1811" opacity="0.053"/>
<circle cx="995.5" cy="82.0" r="0.41" fill="#1C1811" opacity="0.058"/>
<circle cx="1028.9" cy="333.0" r="0.47" fill="#1C1811" opacity="0.026"/>
<circle cx="409.0" cy="895.1" r="0.64" fill="#1C1811" opacity="0.026"/>
<circle cx="1393.2" cy="911.5" r="0.52" fill="#1C1811" opacity="0.056"/>
<circle cx="959.1" cy="900.4" r="0.87" fill="#1C1811" opacity="0.056"/>
<circle cx="1222.9" cy="961.8" r="0.54" fill="#1C1811" opacity="0.048"/>
<circle cx="845.2" cy="858.4" r="0.71" fill="#1C1811" opacity="0.055"/>
<circle cx="880.8" cy="348.5" r="0.56" fill="#1C1811" opacity="0.026"/>
<circle cx="789.8" cy="128.4" r="0.73" fill="#1C1811" opacity="0.026"/>
<circle cx="787.3" cy="598.1" r="0.78" fill="#1C1811" opacity="0.055"/>
<circle cx="75.7" cy="963.9" r="0.73" fill="#1C1811" opacity="0.043"/>
<circle cx="1042.7" cy="963.7" r="0.66" fill="#1C1811" opacity="0.037"/>
<circle cx="1476.2" cy="146.5" r="0.85" fill="#1C1811" opacity="0.045"/>
<circle cx="107.9" cy="717.1" r="0.88" fill="#1C1811" opacity="0.057"/>
<circle cx="551.1" cy="1114.5" r="0.76" fill="#1C1811" opacity="0.039"/>
<circle cx="1383.6" cy="102.2" r="0.90" fill="#1C1811" opacity="0.045"/>
<circle cx="563.1" cy="986.3" r="0.66" fill="#1C1811" opacity="0.039"/>
<circle cx="837.5" cy="889.0" r="0.55" fill="#1C1811" opacity="0.037"/>
<circle cx="686.1" cy="657.7" r="0.98" fill="#1C1811" opacity="0.032"/>
<circle cx="1281.1" cy="497.2" r="0.75" fill="#1C1811" opacity="0.031"/>
<circle cx="809.4" cy="1107.3" r="0.86" fill="#1C1811" opacity="0.052"/>
<circle cx="551.8" cy="404.7" r="0.61" fill="#1C1811" opacity="0.043"/>
<circle cx="997.9" cy="903.5" r="0.43" fill="#1C1811" opacity="0.049"/>
<circle cx="1366.1" cy="648.5" r="0.43" fill="#1C1811" opacity="0.032"/>
<circle cx="75.1" cy="268.9" r="1.05" fill="#1C1811" opacity="0.044"/>
<circle cx="1032.0" cy="908.7" r="1.04" fill="#1C1811" opacity="0.044"/>
<circle cx="971.3" cy="735.4" r="0.89" fill="#1C1811" opacity="0.044"/>
<circle cx="1065.7" cy="293.0" r="0.87" fill="#1C1811" opacity="0.038"/>
<circle cx="1185.6" cy="174.3" r="0.53" fill="#1C1811" opacity="0.021"/>
<circle cx="1203.0" cy="1042.2" r="0.86" fill="#1C1811" opacity="0.035"/>
<circle cx="1273.6" cy="906.0" r="0.79" fill="#1C1811" opacity="0.030"/>
<circle cx="509.4" cy="516.5" r="0.62" fill="#1C1811" opacity="0.037"/>
<circle cx="1008.1" cy="1063.4" r="0.44" fill="#1C1811" opacity="0.043"/>
<circle cx="123.8" cy="192.9" r="0.97" fill="#1C1811" opacity="0.043"/>
<circle cx="1414.5" cy="542.8" r="0.41" fill="#1C1811" opacity="0.035"/>
<circle cx="935.0" cy="1067.5" r="1.09" fill="#1C1811" opacity="0.039"/>
<circle cx="671.4" cy="175.0" r="0.85" fill="#1C1811" opacity="0.028"/>
<circle cx="288.8" cy="82.6" r="0.40" fill="#1C1811" opacity="0.047"/>
<circle cx="244.6" cy="1098.1" r="0.46" fill="#1C1811" opacity="0.055"/>
<circle cx="255.3" cy="85.0" r="0.90" fill="#1C1811" opacity="0.030"/>
<circle cx="1142.9" cy="266.2" r="0.44" fill="#1C1811" opacity="0.051"/>
<circle cx="1113.5" cy="979.7" r="0.91" fill="#1C1811" opacity="0.023"/>
<circle cx="988.8" cy="823.5" r="0.72" fill="#1C1811" opacity="0.057"/>
<circle cx="438.9" cy="1095.9" r="0.90" fill="#1C1811" opacity="0.020"/>
<circle cx="87.6" cy="760.9" r="0.97" fill="#1C1811" opacity="0.023"/>
<circle cx="522.6" cy="845.0" r="0.52" fill="#1C1811" opacity="0.054"/>
<circle cx="779.9" cy="129.8" r="0.66" fill="#1C1811" opacity="0.043"/>
<circle cx="710.0" cy="788.9" r="0.50" fill="#1C1811" opacity="0.052"/>
<circle cx="599.3" cy="754.7" r="0.84" fill="#1C1811" opacity="0.037"/>
<circle cx="632.3" cy="905.7" r="1.06" fill="#1C1811" opacity="0.051"/>
<circle cx="898.1" cy="378.3" r="0.44" fill="#1C1811" opacity="0.059"/>
<circle cx="1098.4" cy="949.7" r="0.63" fill="#1C1811" opacity="0.044"/>
<circle cx="1500.9" cy="953.8" r="0.82" fill="#1C1811" opacity="0.032"/>
<circle cx="695.1" cy="1014.5" r="0.66" fill="#1C1811" opacity="0.047"/>
<circle cx="949.4" cy="1023.1" r="0.97" fill="#1C1811" opacity="0.031"/>
<circle cx="68.5" cy="346.9" r="0.70" fill="#1C1811" opacity="0.043"/>
<circle cx="1263.9" cy="1013.8" r="0.43" fill="#1C1811" opacity="0.053"/>
<circle cx="1257.7" cy="992.2" r="0.80" fill="#1C1811" opacity="0.031"/>
<circle cx="1315.5" cy="927.9" r="0.88" fill="#1C1811" opacity="0.057"/>
<circle cx="575.2" cy="156.8" r="0.79" fill="#1C1811" opacity="0.052"/>
<circle cx="360.2" cy="867.2" r="1.05" fill="#1C1811" opacity="0.029"/>
<circle cx="956.9" cy="789.7" r="0.73" fill="#1C1811" opacity="0.028"/>
<circle cx="440.0" cy="868.2" r="0.95" fill="#1C1811" opacity="0.038"/>
<circle cx="194.7" cy="927.4" r="0.94" fill="#1C1811" opacity="0.029"/>
<circle cx="916.8" cy="1023.9" r="1.02" fill="#1C1811" opacity="0.041"/>
<circle cx="765.6" cy="695.4" r="0.53" fill="#1C1811" opacity="0.028"/>
<circle cx="331.3" cy="814.7" r="0.65" fill="#1C1811" opacity="0.043"/><ellipse cx="820" cy="905" rx="360" ry="34" fill="#A99E8B" opacity="0.35"/>
<polygon points="540,320 636,256 1176,256 1080,320" fill="#D2C9B8" stroke="#1C1811" stroke-width="1.6"/>
<polygon points="1080,320 1176,256 1176,796 1080,860" fill="#A99E8B" stroke="#1C1811" stroke-width="1.6"/>
<line x1="1088" y1="351.7647058823529" x2="1170" y2="296.7247058823529" stroke="#F1EBDF" stroke-width="1.4" opacity="0.75"/>
<line x1="1088" y1="383.52941176470586" x2="1170" y2="328.48941176470584" stroke="#F1EBDF" stroke-width="1.4" opacity="0.75"/>
<line x1="1088" y1="415.29411764705884" x2="1170" y2="360.2541176470588" stroke="#F1EBDF" stroke-width="1.4" opacity="0.75"/>
<line x1="1088" y1="447.05882352941177" x2="1170" y2="392.01882352941175" stroke="#F1EBDF" stroke-width="1.4" opacity="0.75"/>
<line x1="1088" y1="478.8235294117647" x2="1170" y2="423.7835294117647" stroke="#F1EBDF" stroke-width="1.4" opacity="0.75"/>
<line x1="1088" y1="510.5882352941177" x2="1170" y2="455.54823529411766" stroke="#F1EBDF" stroke-width="1.4" opacity="0.75"/>
<line x1="1088" y1="542.3529411764706" x2="1170" y2="487.3129411764706" stroke="#F1EBDF" stroke-width="1.4" opacity="0.75"/>
<line x1="1088" y1="574.1176470588235" x2="1170" y2="519.0776470588236" stroke="#F1EBDF" stroke-width="1.4" opacity="0.75"/>
<line x1="1088" y1="605.8823529411765" x2="1170" y2="550.8423529411765" stroke="#F1EBDF" stroke-width="1.4" opacity="0.75"/>
<line x1="1088" y1="637.6470588235294" x2="1170" y2="582.6070588235294" stroke="#F1EBDF" stroke-width="1.4" opacity="0.75"/>
<line x1="1088" y1="669.4117647058824" x2="1170" y2="614.3717647058825" stroke="#F1EBDF" stroke-width="1.4" opacity="0.75"/>
<line x1="1088" y1="701.1764705882354" x2="1170" y2="646.1364705882354" stroke="#F1EBDF" stroke-width="1.4" opacity="0.75"/>
<line x1="1088" y1="732.9411764705883" x2="1170" y2="677.9011764705883" stroke="#F1EBDF" stroke-width="1.4" opacity="0.75"/>
<line x1="1088" y1="764.7058823529412" x2="1170" y2="709.6658823529413" stroke="#F1EBDF" stroke-width="1.4" opacity="0.75"/>
<line x1="1088" y1="796.4705882352941" x2="1170" y2="741.4305882352942" stroke="#F1EBDF" stroke-width="1.4" opacity="0.75"/>
<line x1="1088" y1="828.2352941176471" x2="1170" y2="773.1952941176471" stroke="#F1EBDF" stroke-width="1.4" opacity="0.75"/>
<rect x="540" y="320" width="540" height="540" fill="#EAE2D3" stroke="#1C1811" stroke-width="1.8"/>
<clipPath id="leftrock"><rect x="540" y="320" width="272" height="540"/></clipPath>
<g clip-path="url(#leftrock)">
<rect x="540" y="320" width="272" height="540" fill="#D2C9B8"/>
<line x1="408" y1="320" x2="678.0" y2="860" stroke="#A99E8B" stroke-width="1.1" opacity="0.55"/>
<line x1="430" y1="320" x2="700.0" y2="860" stroke="#A99E8B" stroke-width="1.1" opacity="0.55"/>
<line x1="452" y1="320" x2="722.0" y2="860" stroke="#A99E8B" stroke-width="1.1" opacity="0.55"/>
<line x1="474" y1="320" x2="744.0" y2="860" stroke="#A99E8B" stroke-width="1.1" opacity="0.55"/>
<line x1="496" y1="320" x2="766.0" y2="860" stroke="#A99E8B" stroke-width="1.1" opacity="0.55"/>
<line x1="518" y1="320" x2="788.0" y2="860" stroke="#A99E8B" stroke-width="1.1" opacity="0.55"/>
<line x1="540" y1="320" x2="810.0" y2="860" stroke="#A99E8B" stroke-width="1.1" opacity="0.55"/>
<line x1="562" y1="320" x2="832.0" y2="860" stroke="#A99E8B" stroke-width="1.1" opacity="0.55"/>
<line x1="584" y1="320" x2="854.0" y2="860" stroke="#A99E8B" stroke-width="1.1" opacity="0.55"/>
<line x1="606" y1="320" x2="876.0" y2="860" stroke="#A99E8B" stroke-width="1.1" opacity="0.55"/>
<line x1="628" y1="320" x2="898.0" y2="860" stroke="#A99E8B" stroke-width="1.1" opacity="0.55"/>
<line x1="650" y1="320" x2="920.0" y2="860" stroke="#A99E8B" stroke-width="1.1" opacity="0.55"/>
<line x1="672" y1="320" x2="942.0" y2="860" stroke="#A99E8B" stroke-width="1.1" opacity="0.55"/>
<line x1="694" y1="320" x2="964.0" y2="860" stroke="#A99E8B" stroke-width="1.1" opacity="0.55"/>
<line x1="716" y1="320" x2="986.0" y2="860" stroke="#A99E8B" stroke-width="1.1" opacity="0.55"/>
<line x1="738" y1="320" x2="1008.0" y2="860" stroke="#A99E8B" stroke-width="1.1" opacity="0.55"/>
<line x1="760" y1="320" x2="1030.0" y2="860" stroke="#A99E8B" stroke-width="1.1" opacity="0.55"/>
<line x1="782" y1="320" x2="1052.0" y2="860" stroke="#A99E8B" stroke-width="1.1" opacity="0.55"/>
<line x1="804" y1="320" x2="1074.0" y2="860" stroke="#A99E8B" stroke-width="1.1" opacity="0.55"/>
<line x1="826" y1="320" x2="1096.0" y2="860" stroke="#A99E8B" stroke-width="1.1" opacity="0.55"/>
<line x1="848" y1="320" x2="1118.0" y2="860" stroke="#A99E8B" stroke-width="1.1" opacity="0.55"/>
<line x1="870" y1="320" x2="1140.0" y2="860" stroke="#A99E8B" stroke-width="1.1" opacity="0.55"/>
<line x1="892" y1="320" x2="1162.0" y2="860" stroke="#A99E8B" stroke-width="1.1" opacity="0.55"/>
<line x1="914" y1="320" x2="1184.0" y2="860" stroke="#A99E8B" stroke-width="1.1" opacity="0.55"/>
<line x1="936" y1="320" x2="1206.0" y2="860" stroke="#A99E8B" stroke-width="1.1" opacity="0.55"/>
<line x1="958" y1="320" x2="1228.0" y2="860" stroke="#A99E8B" stroke-width="1.1" opacity="0.55"/>
<line x1="980" y1="320" x2="1250.0" y2="860" stroke="#A99E8B" stroke-width="1.1" opacity="0.55"/>
<line x1="1002" y1="320" x2="1272.0" y2="860" stroke="#A99E8B" stroke-width="1.1" opacity="0.55"/>
<line x1="1024" y1="320" x2="1294.0" y2="860" stroke="#A99E8B" stroke-width="1.1" opacity="0.55"/>
<line x1="1046" y1="320" x2="1316.0" y2="860" stroke="#A99E8B" stroke-width="1.1" opacity="0.55"/>
<line x1="1068" y1="320" x2="1338.0" y2="860" stroke="#A99E8B" stroke-width="1.1" opacity="0.55"/>
<line x1="1090" y1="320" x2="1360.0" y2="860" stroke="#A99E8B" stroke-width="1.1" opacity="0.55"/>
<line x1="1112" y1="320" x2="1382.0" y2="860" stroke="#A99E8B" stroke-width="1.1" opacity="0.55"/>
<line x1="1134" y1="320" x2="1404.0" y2="860" stroke="#A99E8B" stroke-width="1.1" opacity="0.55"/>
<line x1="1156" y1="320" x2="1426.0" y2="860" stroke="#A99E8B" stroke-width="1.1" opacity="0.55"/>
<line x1="1178" y1="320" x2="1448.0" y2="860" stroke="#A99E8B" stroke-width="1.1" opacity="0.55"/>
<line x1="1200" y1="320" x2="1470.0" y2="860" stroke="#A99E8B" stroke-width="1.1" opacity="0.55"/>
<line x1="1222" y1="320" x2="1492.0" y2="860" stroke="#A99E8B" stroke-width="1.1" opacity="0.55"/>
<line x1="1244" y1="320" x2="1514.0" y2="860" stroke="#A99E8B" stroke-width="1.1" opacity="0.55"/>
<line x1="1266" y1="320" x2="1536.0" y2="860" stroke="#A99E8B" stroke-width="1.1" opacity="0.55"/>
<line x1="1288" y1="320" x2="1558.0" y2="860" stroke="#A99E8B" stroke-width="1.1" opacity="0.55"/>
<line x1="1310" y1="320" x2="1580.0" y2="860" stroke="#A99E8B" stroke-width="1.1" opacity="0.55"/>
<line x1="1332" y1="320" x2="1602.0" y2="860" stroke="#A99E8B" stroke-width="1.1" opacity="0.55"/>
<line x1="1354" y1="320" x2="1624.0" y2="860" stroke="#A99E8B" stroke-width="1.1" opacity="0.55"/>
<line x1="1376" y1="320" x2="1646.0" y2="860" stroke="#A99E8B" stroke-width="1.1" opacity="0.55"/>
<line x1="1398" y1="320" x2="1668.0" y2="860" stroke="#A99E8B" stroke-width="1.1" opacity="0.55"/>
<polygon points="694,617 656,628 626,621 667,647 618,602" fill="#A99E8B" opacity="0.20"/>
<polygon points="696,731 781,701 748,655 693,689 697,658" fill="#A99E8B" opacity="0.23"/>
<polygon points="552,603 559,585 557,587 553,552 603,618" fill="#A99E8B" opacity="0.36"/>
<polygon points="689,478 675,522 705,530 704,540 746,452" fill="#A99E8B" opacity="0.23"/>
<polygon points="805,566 722,587 787,554 723,560 804,599" fill="#A99E8B" opacity="0.21"/>
<polygon points="567,418 578,396 602,362 628,357 620,355" fill="#A99E8B" opacity="0.27"/>
<polygon points="643,503 581,510 573,465 632,488 563,520" fill="#A99E8B" opacity="0.23"/>
<polygon points="594,708 571,689 618,703 619,715 606,769" fill="#A99E8B" opacity="0.29"/>
<polygon points="654,741 721,803 660,745 705,814 655,815" fill="#A99E8B" opacity="0.37"/>
</g>
<polyline points="812,320 816,355 818,387 798,425 826,449 804,479 813,525 813,567 801,606 827,643 823,679 798,718 817,758 797,789 813,832 828,860" fill="none" stroke="#1C1811" stroke-width="2.2" stroke-linejoin="round"/>
<polygon points="905,692 905,675 893,697" fill="#6F675A" opacity="0.85"/>
<polygon points="896,753 898,757 890,752" fill="#6F675A" opacity="0.85"/>
<polygon points="852,770 851,766 851,751" fill="#2B5C8E" opacity="0.85"/>
<polygon points="927,458 916,459 920,455" fill="#6F675A" opacity="0.85"/>
<polygon points="863,783 848,771 845,766" fill="#6F675A" opacity="0.85"/>
<polygon points="828,496 835,488 845,492" fill="#6F675A" opacity="0.85"/>
<polygon points="853,583 852,578 872,561" fill="#6F675A" opacity="0.85"/>
<polygon points="900,511 904,531 904,527" fill="#6F675A" opacity="0.85"/>
<polygon points="922,775 930,768 929,780" fill="#6F675A" opacity="0.85"/>
<rect x="846.0" y="378.0" width="168.2" height="6.4" rx="3.2" fill="#1C1811"/>
<rect x="846.0" y="408.5" width="186.9" height="6.4" rx="3.2" fill="#1C1811"/>
<rect x="846.0" y="439.0" width="185.0" height="6.4" rx="3.2" fill="#1C1811"/>
<rect x="846.0" y="469.5" width="179.4" height="6.4" rx="3.2" fill="#1C1811"/>
<rect x="846.0" y="500.0" width="170.1" height="6.4" rx="3.2" fill="#2B5C8E"/>
<rect x="846.0" y="530.5" width="190.6" height="6.4" rx="3.2" fill="#1C1811"/>
<rect x="846.0" y="561.0" width="191.2" height="6.4" rx="3.2" fill="#1C1811"/>
<rect x="846.0" y="591.5" width="180.6" height="6.4" rx="3.2" fill="#1C1811"/>
<rect x="846.0" y="622.0" width="180.4" height="6.4" rx="3.2" fill="#1C1811"/>
<rect x="846.0" y="652.5" width="170.8" height="6.4" rx="3.2" fill="#1C1811"/>
<rect x="846.0" y="683.0" width="162.5" height="6.4" rx="3.2" fill="#2B5C8E"/>
<rect x="846.0" y="713.5" width="175.6" height="6.4" rx="3.2" fill="#1C1811"/>
<rect x="846.0" y="744.0" width="183.2" height="6.4" rx="3.2" fill="#1C1811"/>
<rect x="846.0" y="774.5" width="164.8" height="6.4" rx="3.2" fill="#1C1811"/>
<rect x="846.0" y="805.0" width="90.0" height="6.4" rx="3.2" fill="#1C1811"/>
<rect x="846" y="360" width="0" height="0"/>
<g transform="translate(430,928) rotate(-11)"><rect x="0" y="-13" width="150" height="26" rx="12" fill="#6F675A"/><rect x="150" y="-9" width="26" height="18" fill="#1C1811"/><polygon points="176,-9 260,-4 260,4 176,9" fill="#A99E8B" stroke="#1C1811" stroke-width="1.4"/><polygon points="256,-4 274,0 256,4" fill="#2B5C8E"/></g>
<circle cx="805" cy="919" r="1.5" fill="#2B5C8E" opacity="0.73"/>
<circle cx="563" cy="923" r="3.4" fill="#6F675A" opacity="0.34"/>
<circle cx="854" cy="927" r="1.3" fill="#6F675A" opacity="0.49"/>
<circle cx="933" cy="921" r="2.9" fill="#6F675A" opacity="0.38"/>
<circle cx="686" cy="910" r="2.4" fill="#6F675A" opacity="0.76"/>
<circle cx="873" cy="932" r="2.1" fill="#6F675A" opacity="0.67"/>
<circle cx="614" cy="916" r="2.8" fill="#6F675A" opacity="0.66"/>
<circle cx="784" cy="909" r="1.8" fill="#6F675A" opacity="0.40"/>
<circle cx="709" cy="934" r="1.7" fill="#6F675A" opacity="0.74"/>
<circle cx="1026" cy="908" r="2.1" fill="#6F675A" opacity="0.55"/>
<circle cx="572" cy="920" r="3.4" fill="#6F675A" opacity="0.36"/>
<circle cx="876" cy="910" r="2.6" fill="#6F675A" opacity="0.75"/>
<circle cx="668" cy="906" r="1.4" fill="#6F675A" opacity="0.57"/>
<circle cx="569" cy="909" r="2.4" fill="#6F675A" opacity="0.76"/>
<circle cx="783" cy="920" r="2.7" fill="#6F675A" opacity="0.35"/>
<circle cx="867" cy="912" r="2.7" fill="#6F675A" opacity="0.78"/>
<circle cx="589" cy="925" r="2.7" fill="#6F675A" opacity="0.37"/>
<circle cx="702" cy="940" r="3.6" fill="#6F675A" opacity="0.36"/>
<circle cx="934" cy="938" r="1.8" fill="#6F675A" opacity="0.61"/>
<circle cx="583" cy="918" r="2.8" fill="#6F675A" opacity="0.60"/>
<circle cx="971" cy="909" r="2.0" fill="#6F675A" opacity="0.73"/>
<circle cx="870" cy="921" r="2.2" fill="#6F675A" opacity="0.79"/>
<circle cx="864" cy="907" r="3.1" fill="#6F675A" opacity="0.46"/>
<circle cx="790" cy="913" r="2.3" fill="#2B5C8E" opacity="0.46"/>
<circle cx="607" cy="927" r="1.4" fill="#6F675A" opacity="0.69"/>
<circle cx="573" cy="933" r="3.1" fill="#6F675A" opacity="0.55"/>
<circle cx="936" cy="914" r="3.0" fill="#6F675A" opacity="0.51"/>
<circle cx="682" cy="939" r="2.2" fill="#6F675A" opacity="0.49"/>
<circle cx="1016" cy="919" r="2.8" fill="#6F675A" opacity="0.39"/>
<circle cx="1007" cy="915" r="1.3" fill="#6F675A" opacity="0.79"/>
<circle cx="652" cy="938" r="3.6" fill="#6F675A" opacity="0.60"/>
<circle cx="566" cy="908" r="1.7" fill="#6F675A" opacity="0.49"/>
<circle cx="884" cy="939" r="2.1" fill="#6F675A" opacity="0.37"/>
<circle cx="858" cy="911" r="1.4" fill="#6F675A" opacity="0.58"/>
<circle cx="929" cy="908" r="2.3" fill="#6F675A" opacity="0.65"/>
<circle cx="965" cy="919" r="3.3" fill="#6F675A" opacity="0.38"/>
<circle cx="939" cy="932" r="3.3" fill="#6F675A" opacity="0.55"/>
<circle cx="613" cy="908" r="2.5" fill="#6F675A" opacity="0.39"/>
<circle cx="894" cy="909" r="3.1" fill="#6F675A" opacity="0.41"/>
<circle cx="567" cy="912" r="2.3" fill="#6F675A" opacity="0.58"/>
<circle cx="766" cy="912" r="2.4" fill="#6F675A" opacity="0.77"/>
<circle cx="844" cy="938" r="1.3" fill="#6F675A" opacity="0.80"/>
<circle cx="1031" cy="925" r="2.5" fill="#6F675A" opacity="0.57"/>
<circle cx="1042" cy="908" r="2.7" fill="#6F675A" opacity="0.57"/>
<circle cx="719" cy="931" r="2.9" fill="#6F675A" opacity="0.35"/>
<circle cx="931" cy="921" r="2.4" fill="#6F675A" opacity="0.62"/>
<circle cx="588" cy="926" r="2.1" fill="#2B5C8E" opacity="0.74"/>
<circle cx="682" cy="934" r="3.0" fill="#6F675A" opacity="0.61"/>
<circle cx="1024" cy="907" r="2.6" fill="#6F675A" opacity="0.61"/>
<circle cx="919" cy="920" r="1.4" fill="#6F675A" opacity="0.39"/>
<circle cx="882" cy="912" r="1.4" fill="#6F675A" opacity="0.48"/>
<circle cx="809" cy="924" r="1.3" fill="#6F675A" opacity="0.69"/>
<circle cx="737" cy="933" r="1.2" fill="#6F675A" opacity="0.78"/>
<circle cx="873" cy="939" r="3.6" fill="#6F675A" opacity="0.72"/>
<circle cx="616" cy="918" r="1.8" fill="#6F675A" opacity="0.69"/>
<circle cx="662" cy="914" r="1.5" fill="#6F675A" opacity="0.36"/>
<circle cx="1057" cy="939" r="2.1" fill="#6F675A" opacity="0.67"/>
<circle cx="808" cy="924" r="2.1" fill="#6F675A" opacity="0.62"/>
<circle cx="685" cy="915" r="2.4" fill="#6F675A" opacity="0.40"/>
<circle cx="793" cy="938" r="1.3" fill="#6F675A" opacity="0.35"/>
<rect x="66" y="66" width="1468" height="1068" fill="none" stroke="#1C1811" stroke-width="1.3"/>
<line x1="81" y1="92" x2="103" y2="92" stroke="#1C1811" stroke-width="1"/><line x1="92" y1="81" x2="92" y2="103" stroke="#1C1811" stroke-width="1"/>
<line x1="1497" y1="92" x2="1519" y2="92" stroke="#1C1811" stroke-width="1"/><line x1="1508" y1="81" x2="1508" y2="103" stroke="#1C1811" stroke-width="1"/>
<line x1="81" y1="1108" x2="103" y2="1108" stroke="#1C1811" stroke-width="1"/><line x1="92" y1="1097" x2="92" y2="1119" stroke="#1C1811" stroke-width="1"/>
<line x1="1497" y1="1108" x2="1519" y2="1108" stroke="#1C1811" stroke-width="1"/><line x1="1508" y1="1097" x2="1508" y2="1119" stroke="#1C1811" stroke-width="1"/>
<text x="118" y="98" font-family="DM Mono" font-size="15" letter-spacing="3" fill="#1C1811">FIG. I</text>
<text x="1482" y="98" font-family="DM Mono" font-size="15" letter-spacing="2" fill="#6F675A" text-anchor="end">Nº 01 / XIII</text>
<line x1="118" y1="1074" x2="1482" y2="1074" stroke="#1C1811" stroke-width="0.8"/>
<text x="118" y="1104" font-family="DM Mono" font-size="17" letter-spacing="5" fill="#1C1811">THE SCULPTOR</text>
<text x="1482" y="1104" font-family="DM Mono" font-size="12.5" letter-spacing="2" fill="#6F675A" text-anchor="end">AI GENERATES THE STONE — CRAFT REVEALS THE FORM</text></svg>