<svg xmlns="http://www.w3.org/2000/svg" width="1600" height="1200" viewBox="0 0 1600 1200"><rect width="1600" height="1200" fill="#F1EBDF"/><circle cx="541.4" cy="227.1" r="0.86" fill="#1C1811" opacity="0.023"/>
<circle cx="852.7" cy="456.6" r="0.44" fill="#1C1811" opacity="0.040"/>
<circle cx="121.0" cy="529.1" r="0.45" fill="#1C1811" opacity="0.024"/>
<circle cx="689.2" cy="949.1" r="0.49" fill="#1C1811" opacity="0.029"/>
<circle cx="987.1" cy="1078.2" r="0.80" fill="#1C1811" opacity="0.036"/>
<circle cx="1499.1" cy="115.8" r="1.00" fill="#1C1811" opacity="0.032"/>
<circle cx="277.8" cy="191.8" r="0.62" fill="#1C1811" opacity="0.053"/>
<circle cx="331.3" cy="687.1" r="0.85" fill="#1C1811" opacity="0.035"/>
<circle cx="870.1" cy="133.1" r="0.44" fill="#1C1811" opacity="0.028"/>
<circle cx="1064.8" cy="522.7" r="0.62" fill="#1C1811" opacity="0.043"/>
<circle cx="731.3" cy="386.2" r="0.96" fill="#1C1811" opacity="0.048"/>
<circle cx="424.3" cy="679.5" r="0.77" fill="#1C1811" opacity="0.055"/>
<circle cx="1136.8" cy="373.5" r="1.09" fill="#1C1811" opacity="0.025"/>
<circle cx="679.8" cy="874.6" r="0.51" fill="#1C1811" opacity="0.040"/>
<circle cx="123.6" cy="779.7" r="0.94" fill="#1C1811" opacity="0.043"/>
<circle cx="1351.2" cy="401.1" r="0.89" fill="#1C1811" opacity="0.044"/>
<circle cx="917.3" cy="553.2" r="0.99" fill="#1C1811" opacity="0.058"/>
<circle cx="762.0" cy="775.3" r="0.44" fill="#1C1811" opacity="0.048"/>
<circle cx="1016.0" cy="1126.6" r="0.98" fill="#1C1811" opacity="0.031"/>
<circle cx="632.3" cy="780.1" r="0.42" fill="#1C1811" opacity="0.038"/>
<circle cx="312.7" cy="191.1" r="0.44" fill="#1C1811" opacity="0.051"/>
<circle cx="255.9" cy="330.5" r="0.67" fill="#1C1811" opacity="0.055"/>
<circle cx="184.3" cy="545.7" r="0.78" fill="#1C1811" opacity="0.055"/>
<circle cx="1268.7" cy="988.7" r="0.59" fill="#1C1811" opacity="0.037"/>
<circle cx="592.7" cy="1010.3" r="1.07" fill="#1C1811" opacity="0.026"/>
<circle cx="324.7" cy="313.7" r="0.56" fill="#1C1811" opacity="0.039"/>
<circle cx="930.8" cy="346.6" r="0.40" fill="#1C1811" opacity="0.037"/>
<circle cx="608.1" cy="670.9" r="1.07" fill="#1C1811" opacity="0.048"/>
<circle cx="822.7" cy="725.6" r="0.87" fill="#1C1811" opacity="0.022"/>
<circle cx="1386.5" cy="899.0" r="1.01" fill="#1C1811" opacity="0.052"/>
<circle cx="642.0" cy="492.1" r="0.47" fill="#1C1811" opacity="0.045"/>
<circle cx="157.4" cy="137.9" r="0.55" fill="#1C1811" opacity="0.026"/>
<circle cx="565.2" cy="122.2" r="0.40" fill="#1C1811" opacity="0.026"/>
<circle cx="214.9" cy="454.3" r="0.42" fill="#1C1811" opacity="0.055"/>
<circle cx="967.5" cy="224.7" r="0.58" fill="#1C1811" opacity="0.034"/>
<circle cx="600.6" cy="197.2" r="0.99" fill="#1C1811" opacity="0.060"/>
<circle cx="750.1" cy="582.7" r="0.46" fill="#1C1811" opacity="0.024"/>
<circle cx="569.0" cy="348.8" r="0.98" fill="#1C1811" opacity="0.026"/>
<circle cx="99.9" cy="1081.7" r="0.77" fill="#1C1811" opacity="0.026"/>
<circle cx="863.4" cy="94.9" r="0.77" fill="#1C1811" opacity="0.059"/>
<circle cx="1333.4" cy="809.5" r="0.58" fill="#1C1811" opacity="0.035"/>
<circle cx="311.2" cy="890.4" r="0.77" fill="#1C1811" opacity="0.051"/>
<circle cx="549.9" cy="304.2" r="0.97" fill="#1C1811" opacity="0.059"/>
<circle cx="1317.7" cy="926.9" r="0.97" fill="#1C1811" opacity="0.050"/>
<circle cx="398.9" cy="618.8" r="0.65" fill="#1C1811" opacity="0.021"/>
<circle cx="107.0" cy="364.4" r="0.58" fill="#1C1811" opacity="0.048"/>
<circle cx="1470.2" cy="543.6" r="1.06" fill="#1C1811" opacity="0.060"/>
<circle cx="1467.9" cy="455.4" r="0.55" fill="#1C1811" opacity="0.029"/>
<circle cx="354.8" cy="284.3" r="0.84" fill="#1C1811" opacity="0.056"/>
<circle cx="1299.8" cy="578.1" r="0.86" fill="#1C1811" opacity="0.052"/>
<circle cx="190.5" cy="771.5" r="1.04" fill="#1C1811" opacity="0.051"/>
<circle cx="1167.2" cy="576.5" r="0.52" fill="#1C1811" opacity="0.052"/>
<circle cx="554.1" cy="921.3" r="1.08" fill="#1C1811" opacity="0.036"/>
<circle cx="655.2" cy="1077.2" r="0.91" fill="#1C1811" opacity="0.027"/>
<circle cx="252.5" cy="227.4" r="1.03" fill="#1C1811" opacity="0.052"/>
<circle cx="280.6" cy="948.7" r="1.09" fill="#1C1811" opacity="0.046"/>
<circle cx="580.4" cy="652.0" r="0.49" fill="#1C1811" opacity="0.021"/>
<circle cx="1491.3" cy="759.9" r="0.77" fill="#1C1811" opacity="0.057"/>
<circle cx="702.8" cy="997.0" r="0.98" fill="#1C1811" opacity="0.028"/>
<circle cx="435.7" cy="378.9" r="0.57" fill="#1C1811" opacity="0.043"/>
<circle cx="446.7" cy="513.5" r="0.49" fill="#1C1811" opacity="0.056"/>
<circle cx="585.4" cy="555.3" r="0.81" fill="#1C1811" opacity="0.056"/>
<circle cx="683.5" cy="1046.1" r="0.75" fill="#1C1811" opacity="0.041"/>
<circle cx="834.5" cy="86.0" r="0.71" fill="#1C1811" opacity="0.027"/>
<circle cx="71.8" cy="919.5" r="0.52" fill="#1C1811" opacity="0.039"/>
<circle cx="1130.6" cy="660.3" r="0.63" fill="#1C1811" opacity="0.041"/>
<circle cx="881.4" cy="903.6" r="0.47" fill="#1C1811" opacity="0.042"/>
<circle cx="430.8" cy="361.7" r="0.94" fill="#1C1811" opacity="0.040"/>
<circle cx="890.6" cy="877.7" r="1.04" fill="#1C1811" opacity="0.038"/>
<circle cx="965.2" cy="605.9" r="0.76" fill="#1C1811" opacity="0.048"/>
<circle cx="730.0" cy="635.5" r="0.73" fill="#1C1811" opacity="0.058"/>
<circle cx="1092.5" cy="1002.1" r="1.06" fill="#1C1811" opacity="0.030"/>
<circle cx="887.4" cy="1073.4" r="0.99" fill="#1C1811" opacity="0.025"/>
<circle cx="244.5" cy="538.2" r="0.45" fill="#1C1811" opacity="0.030"/>
<circle cx="173.3" cy="781.0" r="0.95" fill="#1C1811" opacity="0.056"/>
<circle cx="292.7" cy="830.8" r="0.86" fill="#1C1811" opacity="0.026"/>
<circle cx="1362.0" cy="1099.3" r="0.55" fill="#1C1811" opacity="0.058"/>
<circle cx="650.6" cy="586.4" r="1.09" fill="#1C1811" opacity="0.053"/>
<circle cx="303.0" cy="526.9" r="0.76" fill="#1C1811" opacity="0.034"/>
<circle cx="353.4" cy="406.2" r="0.91" fill="#1C1811" opacity="0.021"/>
<circle cx="879.3" cy="536.4" r="0.41" fill="#1C1811" opacity="0.033"/>
<circle cx="981.9" cy="613.1" r="0.45" fill="#1C1811" opacity="0.059"/>
<circle cx="1223.3" cy="1103.8" r="0.47" fill="#1C1811" opacity="0.031"/>
<circle cx="124.1" cy="898.0" r="0.59" fill="#1C1811" opacity="0.025"/>
<circle cx="685.9" cy="1039.4" r="0.97" fill="#1C1811" opacity="0.030"/>
<circle cx="285.3" cy="1047.7" r="0.80" fill="#1C1811" opacity="0.048"/>
<circle cx="197.3" cy="127.4" r="0.88" fill="#1C1811" opacity="0.037"/>
<circle cx="172.3" cy="1068.2" r="0.84" fill="#1C1811" opacity="0.052"/>
<circle cx="188.9" cy="980.5" r="0.45" fill="#1C1811" opacity="0.055"/>
<circle cx="732.1" cy="428.2" r="0.79" fill="#1C1811" opacity="0.057"/>
<circle cx="459.2" cy="204.0" r="0.77" fill="#1C1811" opacity="0.030"/>
<circle cx="226.7" cy="238.4" r="0.44" fill="#1C1811" opacity="0.028"/>
<circle cx="524.0" cy="391.7" r="0.93" fill="#1C1811" opacity="0.032"/>
<circle cx="800.1" cy="256.0" r="0.64" fill="#1C1811" opacity="0.021"/>
<circle cx="433.7" cy="82.4" r="0.91" fill="#1C1811" opacity="0.042"/>
<circle cx="344.1" cy="573.0" r="1.05" fill="#1C1811" opacity="0.024"/>
<circle cx="1268.2" cy="527.6" r="0.75" fill="#1C1811" opacity="0.053"/>
<circle cx="643.1" cy="607.1" r="0.88" fill="#1C1811" opacity="0.059"/>
<circle cx="569.1" cy="954.9" r="0.89" fill="#1C1811" opacity="0.045"/>
<circle cx="660.1" cy="437.2" r="0.44" fill="#1C1811" opacity="0.025"/>
<circle cx="169.8" cy="857.3" r="0.58" fill="#1C1811" opacity="0.027"/>
<circle cx="190.0" cy="964.5" r="1.01" fill="#1C1811" opacity="0.047"/>
<circle cx="479.9" cy="324.7" r="0.61" fill="#1C1811" opacity="0.038"/>
<circle cx="297.3" cy="542.1" r="0.58" fill="#1C1811" opacity="0.058"/>
<circle cx="1493.8" cy="650.3" r="0.57" fill="#1C1811" opacity="0.059"/>
<circle cx="520.4" cy="446.8" r="0.40" fill="#1C1811" opacity="0.035"/>
<circle cx="762.8" cy="603.0" r="0.54" fill="#1C1811" opacity="0.040"/>
<circle cx="73.3" cy="348.1" r="0.46" fill="#1C1811" opacity="0.036"/>
<circle cx="127.2" cy="90.0" r="0.61" fill="#1C1811" opacity="0.029"/>
<circle cx="925.6" cy="631.2" r="0.93" fill="#1C1811" opacity="0.046"/>
<circle cx="1117.1" cy="1004.9" r="0.67" fill="#1C1811" opacity="0.033"/>
<circle cx="1511.6" cy="225.6" r="0.91" fill="#1C1811" opacity="0.046"/>
<circle cx="130.3" cy="958.1" r="1.02" fill="#1C1811" opacity="0.045"/>
<circle cx="1143.3" cy="933.4" r="0.50" fill="#1C1811" opacity="0.041"/>
<circle cx="806.4" cy="957.7" r="0.96" fill="#1C1811" opacity="0.053"/>
<circle cx="923.4" cy="1019.5" r="0.88" fill="#1C1811" opacity="0.048"/>
<circle cx="403.6" cy="99.3" r="0.49" fill="#1C1811" opacity="0.034"/>
<circle cx="220.0" cy="958.7" r="0.79" fill="#1C1811" opacity="0.045"/>
<circle cx="985.3" cy="792.9" r="0.74" fill="#1C1811" opacity="0.020"/>
<circle cx="1237.0" cy="865.1" r="0.75" fill="#1C1811" opacity="0.041"/>
<circle cx="1033.9" cy="136.5" r="0.92" fill="#1C1811" opacity="0.030"/>
<circle cx="175.3" cy="349.6" r="0.91" fill="#1C1811" opacity="0.028"/>
<circle cx="1152.1" cy="1108.1" r="0.75" fill="#1C1811" opacity="0.035"/>
<circle cx="769.2" cy="796.2" r="0.94" fill="#1C1811" opacity="0.045"/>
<circle cx="1009.6" cy="148.7" r="0.50" fill="#1C1811" opacity="0.030"/>
<circle cx="1157.0" cy="391.1" r="0.80" fill="#1C1811" opacity="0.020"/>
<circle cx="155.1" cy="353.0" r="0.87" fill="#1C1811" opacity="0.048"/>
<circle cx="1057.9" cy="376.6" r="0.76" fill="#1C1811" opacity="0.039"/>
<circle cx="750.6" cy="192.6" r="1.03" fill="#1C1811" opacity="0.028"/>
<circle cx="1501.9" cy="1065.9" r="0.41" fill="#1C1811" opacity="0.038"/>
<circle cx="1269.6" cy="1099.9" r="0.71" fill="#1C1811" opacity="0.031"/>
<circle cx="374.0" cy="1075.9" r="0.55" fill="#1C1811" opacity="0.043"/>
<circle cx="274.1" cy="625.7" r="1.07" fill="#1C1811" opacity="0.025"/>
<circle cx="1270.1" cy="609.3" r="1.02" fill="#1C1811" opacity="0.048"/>
<circle cx="405.7" cy="1024.7" r="0.74" fill="#1C1811" opacity="0.021"/>
<circle cx="71.3" cy="591.1" r="0.72" fill="#1C1811" opacity="0.032"/>
<circle cx="272.6" cy="433.3" r="0.62" fill="#1C1811" opacity="0.054"/>
<circle cx="68.6" cy="867.8" r="0.99" fill="#1C1811" opacity="0.025"/>
<circle cx="1426.0" cy="827.5" r="1.03" fill="#1C1811" opacity="0.032"/>
<circle cx="612.4" cy="485.6" r="1.10" fill="#1C1811" opacity="0.044"/>
<circle cx="595.5" cy="523.2" r="0.59" fill="#1C1811" opacity="0.022"/>
<circle cx="215.3" cy="957.4" r="0.60" fill="#1C1811" opacity="0.057"/>
<circle cx="432.0" cy="349.8" r="0.76" fill="#1C1811" opacity="0.028"/>
<circle cx="614.1" cy="1087.2" r="1.02" fill="#1C1811" opacity="0.052"/>
<circle cx="992.2" cy="1041.5" r="1.06" fill="#1C1811" opacity="0.042"/>
<circle cx="1122.3" cy="118.8" r="0.91" fill="#1C1811" opacity="0.038"/>
<circle cx="1170.9" cy="754.3" r="0.60" fill="#1C1811" opacity="0.022"/>
<circle cx="1426.5" cy="202.0" r="0.73" fill="#1C1811" opacity="0.034"/>
<circle cx="503.1" cy="855.3" r="1.08" fill="#1C1811" opacity="0.030"/>
<circle cx="1029.0" cy="387.3" r="0.79" fill="#1C1811" opacity="0.036"/>
<circle cx="311.6" cy="238.6" r="0.55" fill="#1C1811" opacity="0.056"/>
<circle cx="795.7" cy="301.0" r="1.03" fill="#1C1811" opacity="0.060"/>
<circle cx="726.5" cy="215.1" r="0.53" fill="#1C1811" opacity="0.024"/>
<circle cx="568.0" cy="163.3" r="0.57" fill="#1C1811" opacity="0.030"/>
<circle cx="902.2" cy="1013.6" r="0.92" fill="#1C1811" opacity="0.037"/>
<circle cx="673.6" cy="625.8" r="0.66" fill="#1C1811" opacity="0.034"/>
<circle cx="157.1" cy="362.4" r="1.08" fill="#1C1811" opacity="0.025"/>
<circle cx="805.0" cy="738.4" r="1.00" fill="#1C1811" opacity="0.029"/>
<circle cx="463.9" cy="331.3" r="0.68" fill="#1C1811" opacity="0.038"/>
<circle cx="1466.4" cy="972.4" r="1.01" fill="#1C1811" opacity="0.021"/>
<circle cx="113.3" cy="823.8" r="1.03" fill="#1C1811" opacity="0.039"/>
<circle cx="928.0" cy="66.2" r="0.67" fill="#1C1811" opacity="0.057"/>
<circle cx="1278.0" cy="979.6" r="1.08" fill="#1C1811" opacity="0.030"/>
<circle cx="226.1" cy="230.9" r="0.77" fill="#1C1811" opacity="0.047"/>
<circle cx="1448.1" cy="836.8" r="0.85" fill="#1C1811" opacity="0.051"/>
<circle cx="737.4" cy="655.0" r="0.43" fill="#1C1811" opacity="0.051"/>
<circle cx="407.4" cy="1048.5" r="0.85" fill="#1C1811" opacity="0.032"/>
<circle cx="253.9" cy="334.9" r="0.85" fill="#1C1811" opacity="0.048"/>
<circle cx="230.6" cy="141.1" r="0.77" fill="#1C1811" opacity="0.043"/>
<circle cx="635.7" cy="304.8" r="0.82" fill="#1C1811" opacity="0.020"/>
<circle cx="508.6" cy="558.0" r="1.07" fill="#1C1811" opacity="0.046"/>
<circle cx="1363.4" cy="573.6" r="0.56" fill="#1C1811" opacity="0.030"/>
<circle cx="1476.2" cy="818.6" r="0.62" fill="#1C1811" opacity="0.021"/>
<circle cx="797.5" cy="786.3" r="0.69" fill="#1C1811" opacity="0.030"/>
<circle cx="1045.7" cy="1054.1" r="0.56" fill="#1C1811" opacity="0.021"/>
<circle cx="562.3" cy="515.2" r="0.88" fill="#1C1811" opacity="0.028"/>
<circle cx="1236.1" cy="855.4" r="0.75" fill="#1C1811" opacity="0.028"/>
<circle cx="1489.8" cy="398.9" r="0.97" fill="#1C1811" opacity="0.029"/>
<circle cx="391.1" cy="878.2" r="0.61" fill="#1C1811" opacity="0.058"/>
<circle cx="793.8" cy="266.1" r="0.56" fill="#1C1811" opacity="0.037"/>
<circle cx="1042.7" cy="1079.3" r="0.50" fill="#1C1811" opacity="0.036"/>
<circle cx="378.6" cy="1106.4" r="0.50" fill="#1C1811" opacity="0.022"/>
<circle cx="154.3" cy="486.1" r="1.03" fill="#1C1811" opacity="0.055"/>
<circle cx="1141.6" cy="1131.4" r="1.05" fill="#1C1811" opacity="0.033"/>
<circle cx="338.3" cy="1065.5" r="0.92" fill="#1C1811" opacity="0.021"/>
<circle cx="1041.4" cy="470.4" r="0.66" fill="#1C1811" opacity="0.033"/>
<circle cx="314.5" cy="69.1" r="0.60" fill="#1C1811" opacity="0.034"/>
<circle cx="1468.7" cy="198.1" r="1.07" fill="#1C1811" opacity="0.028"/>
<circle cx="589.5" cy="943.4" r="0.98" fill="#1C1811" opacity="0.037"/>
<circle cx="138.3" cy="571.7" r="0.66" fill="#1C1811" opacity="0.057"/>
<circle cx="349.4" cy="455.0" r="1.03" fill="#1C1811" opacity="0.021"/>
<circle cx="669.1" cy="933.0" r="0.94" fill="#1C1811" opacity="0.022"/>
<circle cx="117.2" cy="132.8" r="1.04" fill="#1C1811" opacity="0.030"/>
<circle cx="1163.0" cy="1025.7" r="0.64" fill="#1C1811" opacity="0.031"/>
<circle cx="1471.9" cy="724.9" r="0.58" fill="#1C1811" opacity="0.049"/>
<circle cx="530.6" cy="360.4" r="0.40" fill="#1C1811" opacity="0.050"/>
<circle cx="1411.4" cy="743.1" r="1.06" fill="#1C1811" opacity="0.021"/>
<circle cx="409.3" cy="573.5" r="1.07" fill="#1C1811" opacity="0.058"/>
<circle cx="633.4" cy="334.1" r="0.70" fill="#1C1811" opacity="0.040"/>
<circle cx="1428.4" cy="261.4" r="0.96" fill="#1C1811" opacity="0.050"/>
<circle cx="1273.8" cy="891.4" r="0.83" fill="#1C1811" opacity="0.033"/>
<circle cx="535.1" cy="452.5" r="0.95" fill="#1C1811" opacity="0.023"/>
<circle cx="355.7" cy="870.1" r="0.57" fill="#1C1811" opacity="0.023"/>
<circle cx="115.7" cy="656.2" r="0.63" fill="#1C1811" opacity="0.059"/>
<circle cx="1362.9" cy="1121.0" r="0.59" fill="#1C1811" opacity="0.023"/>
<circle cx="207.5" cy="598.4" r="0.90" fill="#1C1811" opacity="0.038"/>
<circle cx="409.8" cy="511.2" r="0.83" fill="#1C1811" opacity="0.047"/>
<circle cx="1164.0" cy="970.6" r="0.87" fill="#1C1811" opacity="0.025"/>
<circle cx="1300.4" cy="379.8" r="0.80" fill="#1C1811" opacity="0.035"/>
<circle cx="1149.5" cy="278.7" r="0.57" fill="#1C1811" opacity="0.030"/>
<circle cx="291.1" cy="1010.3" r="0.80" fill="#1C1811" opacity="0.033"/>
<circle cx="647.4" cy="1125.9" r="0.76" fill="#1C1811" opacity="0.029"/>
<circle cx="1252.8" cy="763.8" r="1.09" fill="#1C1811" opacity="0.024"/>
<circle cx="763.0" cy="940.8" r="0.99" fill="#1C1811" opacity="0.057"/>
<circle cx="125.3" cy="379.6" r="0.48" fill="#1C1811" opacity="0.028"/>
<circle cx="1494.3" cy="688.9" r="1.05" fill="#1C1811" opacity="0.035"/>
<circle cx="1337.5" cy="545.7" r="0.58" fill="#1C1811" opacity="0.051"/>
<circle cx="1454.3" cy="179.0" r="0.82" fill="#1C1811" opacity="0.045"/>
<circle cx="385.5" cy="459.8" r="0.50" fill="#1C1811" opacity="0.028"/>
<circle cx="440.2" cy="706.2" r="0.86" fill="#1C1811" opacity="0.028"/>
<circle cx="82.7" cy="415.5" r="0.87" fill="#1C1811" opacity="0.027"/>
<circle cx="524.3" cy="283.2" r="0.96" fill="#1C1811" opacity="0.042"/>
<circle cx="158.9" cy="174.3" r="0.68" fill="#1C1811" opacity="0.042"/>
<circle cx="1004.3" cy="163.4" r="0.51" fill="#1C1811" opacity="0.048"/>
<circle cx="667.6" cy="368.6" r="0.62" fill="#1C1811" opacity="0.058"/>
<circle cx="524.5" cy="671.0" r="0.65" fill="#1C1811" opacity="0.037"/>
<circle cx="1334.7" cy="1130.4" r="0.65" fill="#1C1811" opacity="0.028"/>
<circle cx="1134.8" cy="283.5" r="0.40" fill="#1C1811" opacity="0.056"/>
<circle cx="688.1" cy="942.2" r="0.68" fill="#1C1811" opacity="0.055"/>
<circle cx="742.6" cy="239.6" r="0.41" fill="#1C1811" opacity="0.042"/>
<circle cx="1006.5" cy="1037.7" r="0.46" fill="#1C1811" opacity="0.045"/>
<circle cx="610.4" cy="604.8" r="0.50" fill="#1C1811" opacity="0.031"/>
<circle cx="831.1" cy="1054.4" r="0.48" fill="#1C1811" opacity="0.040"/>
<circle cx="1247.5" cy="1098.6" r="0.54" fill="#1C1811" opacity="0.025"/>
<circle cx="1450.4" cy="1107.9" r="0.74" fill="#1C1811" opacity="0.022"/>
<circle cx="1425.6" cy="480.3" r="1.03" fill="#1C1811" opacity="0.045"/>
<circle cx="1276.4" cy="237.2" r="0.95" fill="#1C1811" opacity="0.029"/>
<circle cx="659.8" cy="969.9" r="0.98" fill="#1C1811" opacity="0.027"/>
<circle cx="386.2" cy="492.9" r="0.76" fill="#1C1811" opacity="0.035"/>
<circle cx="246.6" cy="329.9" r="0.91" fill="#1C1811" opacity="0.056"/>
<circle cx="126.3" cy="666.6" r="0.93" fill="#1C1811" opacity="0.022"/>
<circle cx="1296.5" cy="191.7" r="0.82" fill="#1C1811" opacity="0.042"/>
<circle cx="986.5" cy="393.0" r="0.69" fill="#1C1811" opacity="0.043"/>
<circle cx="691.0" cy="769.6" r="0.71" fill="#1C1811" opacity="0.038"/>
<circle cx="100.3" cy="727.0" r="0.74" fill="#1C1811" opacity="0.029"/>
<circle cx="1186.9" cy="899.0" r="0.72" fill="#1C1811" opacity="0.027"/>
<circle cx="760.7" cy="180.4" r="0.49" fill="#1C1811" opacity="0.037"/>
<circle cx="200.6" cy="538.0" r="0.76" fill="#1C1811" opacity="0.022"/>
<circle cx="1000.3" cy="153.8" r="0.91" fill="#1C1811" opacity="0.051"/>
<circle cx="816.9" cy="124.0" r="0.75" fill="#1C1811" opacity="0.035"/>
<circle cx="1461.9" cy="211.4" r="1.00" fill="#1C1811" opacity="0.060"/>
<circle cx="1140.7" cy="936.4" r="0.54" fill="#1C1811" opacity="0.059"/>
<circle cx="788.1" cy="1087.7" r="1.04" fill="#1C1811" opacity="0.027"/>
<circle cx="1223.3" cy="1059.9" r="0.45" fill="#1C1811" opacity="0.034"/>
<circle cx="1176.1" cy="235.6" r="1.03" fill="#1C1811" opacity="0.031"/>
<circle cx="1263.3" cy="219.3" r="0.75" fill="#1C1811" opacity="0.057"/>
<circle cx="371.8" cy="346.7" r="0.75" fill="#1C1811" opacity="0.033"/>
<circle cx="120.1" cy="260.5" r="0.51" fill="#1C1811" opacity="0.057"/>
<circle cx="1063.8" cy="1022.3" r="0.52" fill="#1C1811" opacity="0.051"/>
<circle cx="234.9" cy="632.8" r="0.85" fill="#1C1811" opacity="0.034"/>
<circle cx="1347.5" cy="658.9" r="0.81" fill="#1C1811" opacity="0.055"/>
<circle cx="219.6" cy="1126.5" r="0.84" fill="#1C1811" opacity="0.036"/>
<circle cx="1237.0" cy="348.8" r="1.09" fill="#1C1811" opacity="0.043"/>
<circle cx="594.8" cy="882.6" r="0.71" fill="#1C1811" opacity="0.027"/>
<circle cx="1157.6" cy="117.6" r="0.97" fill="#1C1811" opacity="0.030"/>
<circle cx="1004.4" cy="1117.0" r="0.81" fill="#1C1811" opacity="0.047"/>
<circle cx="525.0" cy="67.9" r="0.42" fill="#1C1811" opacity="0.026"/>
<circle cx="970.4" cy="527.6" r="0.76" fill="#1C1811" opacity="0.056"/>
<circle cx="259.8" cy="308.7" r="0.86" fill="#1C1811" opacity="0.021"/>
<circle cx="69.8" cy="445.1" r="0.47" fill="#1C1811" opacity="0.034"/>
<circle cx="395.2" cy="689.3" r="0.81" fill="#1C1811" opacity="0.028"/>
<circle cx="981.9" cy="573.2" r="0.49" fill="#1C1811" opacity="0.057"/>
<circle cx="423.6" cy="225.5" r="0.47" fill="#1C1811" opacity="0.046"/>
<circle cx="1345.0" cy="901.3" r="0.68" fill="#1C1811" opacity="0.031"/>
<circle cx="82.9" cy="754.8" r="0.79" fill="#1C1811" opacity="0.034"/>
<circle cx="1013.7" cy="539.9" r="1.06" fill="#1C1811" opacity="0.049"/>
<circle cx="430.8" cy="1030.9" r="0.43" fill="#1C1811" opacity="0.041"/>
<circle cx="662.0" cy="319.8" r="0.44" fill="#1C1811" opacity="0.051"/>
<circle cx="84.1" cy="654.4" r="1.06" fill="#1C1811" opacity="0.026"/>
<circle cx="358.9" cy="715.4" r="0.75" fill="#1C1811" opacity="0.046"/>
<circle cx="1260.0" cy="252.5" r="0.62" fill="#1C1811" opacity="0.032"/>
<circle cx="137.2" cy="1015.8" r="0.95" fill="#1C1811" opacity="0.049"/>
<circle cx="75.3" cy="967.9" r="0.92" fill="#1C1811" opacity="0.039"/>
<circle cx="1154.9" cy="549.3" r="0.56" fill="#1C1811" opacity="0.024"/>
<circle cx="407.0" cy="107.5" r="0.63" fill="#1C1811" opacity="0.050"/>
<circle cx="1086.4" cy="968.8" r="0.90" fill="#1C1811" opacity="0.031"/>
<circle cx="879.0" cy="531.7" r="0.95" fill="#1C1811" opacity="0.041"/>
<circle cx="455.5" cy="751.7" r="1.08" fill="#1C1811" opacity="0.029"/>
<circle cx="1357.9" cy="82.3" r="0.58" fill="#1C1811" opacity="0.029"/>
<circle cx="1158.0" cy="1074.9" r="0.92" fill="#1C1811" opacity="0.033"/>
<circle cx="1358.1" cy="416.9" r="0.57" fill="#1C1811" opacity="0.056"/>
<circle cx="991.9" cy="806.0" r="0.87" fill="#1C1811" opacity="0.059"/>
<circle cx="755.2" cy="962.8" r="0.89" fill="#1C1811" opacity="0.054"/>
<circle cx="707.8" cy="839.9" r="0.80" fill="#1C1811" opacity="0.032"/>
<circle cx="377.2" cy="731.0" r="0.45" fill="#1C1811" opacity="0.056"/>
<circle cx="278.3" cy="94.7" r="0.47" fill="#1C1811" opacity="0.057"/>
<circle cx="572.3" cy="217.5" r="0.42" fill="#1C1811" opacity="0.022"/>
<circle cx="1082.8" cy="743.0" r="0.89" fill="#1C1811" opacity="0.049"/>
<circle cx="162.5" cy="696.6" r="0.65" fill="#1C1811" opacity="0.053"/>
<circle cx="1269.1" cy="1017.9" r="0.45" fill="#1C1811" opacity="0.055"/>
<circle cx="1408.4" cy="1074.5" r="0.47" fill="#1C1811" opacity="0.028"/>
<circle cx="230.4" cy="102.8" r="0.99" fill="#1C1811" opacity="0.052"/>
<circle cx="997.0" cy="947.2" r="0.84" fill="#1C1811" opacity="0.031"/>
<circle cx="212.6" cy="170.5" r="0.93" fill="#1C1811" opacity="0.028"/>
<circle cx="534.5" cy="518.6" r="0.41" fill="#1C1811" opacity="0.030"/>
<circle cx="480.8" cy="830.4" r="0.66" fill="#1C1811" opacity="0.033"/>
<circle cx="1481.2" cy="604.0" r="1.00" fill="#1C1811" opacity="0.045"/>
<circle cx="111.5" cy="507.0" r="0.71" fill="#1C1811" opacity="0.051"/>
<circle cx="575.1" cy="818.6" r="0.78" fill="#1C1811" opacity="0.029"/>
<circle cx="1331.8" cy="163.1" r="0.97" fill="#1C1811" opacity="0.027"/>
<circle cx="67.9" cy="281.8" r="0.93" fill="#1C1811" opacity="0.059"/>
<circle cx="72.4" cy="590.2" r="0.74" fill="#1C1811" opacity="0.052"/>
<circle cx="336.9" cy="594.2" r="0.64" fill="#1C1811" opacity="0.053"/>
<circle cx="448.5" cy="1074.1" r="0.60" fill="#1C1811" opacity="0.029"/>
<circle cx="1092.8" cy="598.2" r="0.48" fill="#1C1811" opacity="0.045"/>
<circle cx="184.7" cy="907.5" r="0.89" fill="#1C1811" opacity="0.051"/>
<circle cx="987.8" cy="445.8" r="0.68" fill="#1C1811" opacity="0.036"/>
<circle cx="1373.1" cy="158.0" r="1.02" fill="#1C1811" opacity="0.021"/>
<circle cx="368.6" cy="347.1" r="1.03" fill="#1C1811" opacity="0.040"/>
<circle cx="622.8" cy="1010.1" r="0.56" fill="#1C1811" opacity="0.038"/>
<circle cx="846.3" cy="871.8" r="0.93" fill="#1C1811" opacity="0.046"/>
<circle cx="577.6" cy="414.9" r="0.51" fill="#1C1811" opacity="0.054"/>
<circle cx="1038.0" cy="858.4" r="0.52" fill="#1C1811" opacity="0.038"/>
<circle cx="1201.4" cy="684.6" r="0.49" fill="#1C1811" opacity="0.038"/>
<circle cx="1365.4" cy="320.1" r="0.53" fill="#1C1811" opacity="0.032"/>
<circle cx="1098.2" cy="967.0" r="0.51" fill="#1C1811" opacity="0.026"/>
<circle cx="429.4" cy="414.8" r="0.77" fill="#1C1811" opacity="0.026"/>
<circle cx="547.6" cy="268.1" r="1.08" fill="#1C1811" opacity="0.049"/>
<circle cx="215.5" cy="1093.8" r="0.47" fill="#1C1811" opacity="0.035"/>
<circle cx="1510.3" cy="914.9" r="0.91" fill="#1C1811" opacity="0.037"/>
<circle cx="354.0" cy="747.4" r="0.47" fill="#1C1811" opacity="0.028"/>
<circle cx="636.1" cy="102.2" r="0.68" fill="#1C1811" opacity="0.052"/>
<circle cx="1084.0" cy="600.5" r="0.84" fill="#1C1811" opacity="0.039"/>
<circle cx="274.2" cy="710.8" r="0.68" fill="#1C1811" opacity="0.050"/>
<circle cx="1398.9" cy="525.3" r="0.80" fill="#1C1811" opacity="0.050"/>
<circle cx="684.3" cy="310.1" r="0.91" fill="#1C1811" opacity="0.055"/>
<circle cx="1202.3" cy="813.7" r="1.00" fill="#1C1811" opacity="0.047"/>
<circle cx="1007.8" cy="550.8" r="0.62" fill="#1C1811" opacity="0.045"/>
<circle cx="209.7" cy="514.1" r="0.95" fill="#1C1811" opacity="0.049"/>
<circle cx="990.3" cy="333.1" r="0.70" fill="#1C1811" opacity="0.038"/>
<circle cx="978.5" cy="503.2" r="0.87" fill="#1C1811" opacity="0.057"/>
<circle cx="334.7" cy="765.0" r="0.94" fill="#1C1811" opacity="0.036"/>
<circle cx="785.1" cy="1106.9" r="0.43" fill="#1C1811" opacity="0.042"/>
<circle cx="302.1" cy="901.0" r="1.06" fill="#1C1811" opacity="0.041"/>
<circle cx="214.4" cy="679.6" r="0.78" fill="#1C1811" opacity="0.049"/>
<circle cx="817.9" cy="748.7" r="0.98" fill="#1C1811" opacity="0.041"/>
<circle cx="668.4" cy="1078.4" r="0.55" fill="#1C1811" opacity="0.047"/>
<circle cx="642.2" cy="880.6" r="0.49" fill="#1C1811" opacity="0.059"/>
<circle cx="587.8" cy="126.5" r="0.59" fill="#1C1811" opacity="0.036"/>
<circle cx="85.5" cy="513.0" r="0.69" fill="#1C1811" opacity="0.048"/>
<circle cx="582.9" cy="349.2" r="0.56" fill="#1C1811" opacity="0.050"/>
<circle cx="1445.8" cy="628.9" r="0.55" fill="#1C1811" opacity="0.052"/>
<circle cx="641.4" cy="292.4" r="0.49" fill="#1C1811" opacity="0.051"/>
<circle cx="1254.5" cy="743.4" r="0.73" fill="#1C1811" opacity="0.042"/>
<circle cx="397.7" cy="1095.4" r="0.65" fill="#1C1811" opacity="0.046"/>
<circle cx="1267.9" cy="937.7" r="0.73" fill="#1C1811" opacity="0.032"/>
<circle cx="870.9" cy="199.7" r="0.98" fill="#1C1811" opacity="0.034"/>
<circle cx="1314.8" cy="351.6" r="0.66" fill="#1C1811" opacity="0.030"/>
<circle cx="691.5" cy="264.5" r="0.40" fill="#1C1811" opacity="0.049"/>
<circle cx="478.8" cy="327.6" r="0.61" fill="#1C1811" opacity="0.039"/>
<circle cx="695.0" cy="746.6" r="0.86" fill="#1C1811" opacity="0.034"/>
<circle cx="1429.4" cy="978.5" r="0.44" fill="#1C1811" opacity="0.053"/>
<circle cx="1395.7" cy="903.4" r="0.50" fill="#1C1811" opacity="0.053"/>
<circle cx="995.5" cy="82.0" r="0.41" fill="#1C1811" opacity="0.058"/>
<circle cx="1028.9" cy="333.0" r="0.47" fill="#1C1811" opacity="0.026"/>
<circle cx="409.0" cy="895.1" r="0.64" fill="#1C1811" opacity="0.026"/>
<circle cx="1393.2" cy="911.5" r="0.52" fill="#1C1811" opacity="0.056"/>
<circle cx="959.1" cy="900.4" r="0.87" fill="#1C1811" opacity="0.056"/>
<circle cx="1222.9" cy="961.8" r="0.54" fill="#1C1811" opacity="0.048"/>
<circle cx="845.2" cy="858.4" r="0.71" fill="#1C1811" opacity="0.055"/>
<circle cx="880.8" cy="348.5" r="0.56" fill="#1C1811" opacity="0.026"/>
<circle cx="789.8" cy="128.4" r="0.73" fill="#1C1811" opacity="0.026"/>
<circle cx="787.3" cy="598.1" r="0.78" fill="#1C1811" opacity="0.055"/>
<circle cx="75.7" cy="963.9" r="0.73" fill="#1C1811" opacity="0.043"/>
<circle cx="1042.7" cy="963.7" r="0.66" fill="#1C1811" opacity="0.037"/>
<circle cx="1476.2" cy="146.5" r="0.85" fill="#1C1811" opacity="0.045"/>
<circle cx="107.9" cy="717.1" r="0.88" fill="#1C1811" opacity="0.057"/>
<circle cx="551.1" cy="1114.5" r="0.76" fill="#1C1811" opacity="0.039"/>
<circle cx="1383.6" cy="102.2" r="0.90" fill="#1C1811" opacity="0.045"/>
<circle cx="563.1" cy="986.3" r="0.66" fill="#1C1811" opacity="0.039"/>
<circle cx="837.5" cy="889.0" r="0.55" fill="#1C1811" opacity="0.037"/>
<circle cx="686.1" cy="657.7" r="0.98" fill="#1C1811" opacity="0.032"/>
<circle cx="1281.1" cy="497.2" r="0.75" fill="#1C1811" opacity="0.031"/>
<circle cx="809.4" cy="1107.3" r="0.86" fill="#1C1811" opacity="0.052"/>
<circle cx="551.8" cy="404.7" r="0.61" fill="#1C1811" opacity="0.043"/>
<circle cx="997.9" cy="903.5" r="0.43" fill="#1C1811" opacity="0.049"/>
<circle cx="1366.1" cy="648.5" r="0.43" fill="#1C1811" opacity="0.032"/>
<circle cx="75.1" cy="268.9" r="1.05" fill="#1C1811" opacity="0.044"/>
<circle cx="1032.0" cy="908.7" r="1.04" fill="#1C1811" opacity="0.044"/>
<circle cx="971.3" cy="735.4" r="0.89" fill="#1C1811" opacity="0.044"/>
<circle cx="1065.7" cy="293.0" r="0.87" fill="#1C1811" opacity="0.038"/>
<circle cx="1185.6" cy="174.3" r="0.53" fill="#1C1811" opacity="0.021"/>
<circle cx="1203.0" cy="1042.2" r="0.86" fill="#1C1811" opacity="0.035"/>
<circle cx="1273.6" cy="906.0" r="0.79" fill="#1C1811" opacity="0.030"/>
<circle cx="509.4" cy="516.5" r="0.62" fill="#1C1811" opacity="0.037"/>
<circle cx="1008.1" cy="1063.4" r="0.44" fill="#1C1811" opacity="0.043"/>
<circle cx="123.8" cy="192.9" r="0.97" fill="#1C1811" opacity="0.043"/>
<circle cx="1414.5" cy="542.8" r="0.41" fill="#1C1811" opacity="0.035"/>
<circle cx="935.0" cy="1067.5" r="1.09" fill="#1C1811" opacity="0.039"/>
<circle cx="671.4" cy="175.0" r="0.85" fill="#1C1811" opacity="0.028"/>
<circle cx="288.8" cy="82.6" r="0.40" fill="#1C1811" opacity="0.047"/>
<circle cx="244.6" cy="1098.1" r="0.46" fill="#1C1811" opacity="0.055"/>
<circle cx="255.3" cy="85.0" r="0.90" fill="#1C1811" opacity="0.030"/>
<circle cx="1142.9" cy="266.2" r="0.44" fill="#1C1811" opacity="0.051"/>
<circle cx="1113.5" cy="979.7" r="0.91" fill="#1C1811" opacity="0.023"/>
<circle cx="988.8" cy="823.5" r="0.72" fill="#1C1811" opacity="0.057"/>
<circle cx="438.9" cy="1095.9" r="0.90" fill="#1C1811" opacity="0.020"/>
<circle cx="87.6" cy="760.9" r="0.97" fill="#1C1811" opacity="0.023"/>
<circle cx="522.6" cy="845.0" r="0.52" fill="#1C1811" opacity="0.054"/>
<circle cx="779.9" cy="129.8" r="0.66" fill="#1C1811" opacity="0.043"/>
<circle cx="710.0" cy="788.9" r="0.50" fill="#1C1811" opacity="0.052"/>
<circle cx="599.3" cy="754.7" r="0.84" fill="#1C1811" opacity="0.037"/>
<circle cx="632.3" cy="905.7" r="1.06" fill="#1C1811" opacity="0.051"/>
<circle cx="898.1" cy="378.3" r="0.44" fill="#1C1811" opacity="0.059"/>
<circle cx="1098.4" cy="949.7" r="0.63" fill="#1C1811" opacity="0.044"/>
<circle cx="1500.9" cy="953.8" r="0.82" fill="#1C1811" opacity="0.032"/>
<circle cx="695.1" cy="1014.5" r="0.66" fill="#1C1811" opacity="0.047"/>
<circle cx="949.4" cy="1023.1" r="0.97" fill="#1C1811" opacity="0.031"/>
<circle cx="68.5" cy="346.9" r="0.70" fill="#1C1811" opacity="0.043"/>
<circle cx="1263.9" cy="1013.8" r="0.43" fill="#1C1811" opacity="0.053"/>
<circle cx="1257.7" cy="992.2" r="0.80" fill="#1C1811" opacity="0.031"/>
<circle cx="1315.5" cy="927.9" r="0.88" fill="#1C1811" opacity="0.057"/>
<circle cx="575.2" cy="156.8" r="0.79" fill="#1C1811" opacity="0.052"/>
<circle cx="360.2" cy="867.2" r="1.05" fill="#1C1811" opacity="0.029"/>
<circle cx="956.9" cy="789.7" r="0.73" fill="#1C1811" opacity="0.028"/>
<circle cx="440.0" cy="868.2" r="0.95" fill="#1C1811" opacity="0.038"/>
<circle cx="194.7" cy="927.4" r="0.94" fill="#1C1811" opacity="0.029"/>
<circle cx="916.8" cy="1023.9" r="1.02" fill="#1C1811" opacity="0.041"/>
<circle cx="765.6" cy="695.4" r="0.53" fill="#1C1811" opacity="0.028"/>
<circle cx="331.3" cy="814.7" r="0.65" fill="#1C1811" opacity="0.043"/><text x="435" y="306" font-family="DM Mono" font-size="15" letter-spacing="4" fill="#6F675A" text-anchor="middle">TELL</text>
<text x="1165" y="306" font-family="DM Mono" font-size="15" letter-spacing="4" fill="#1C1811" text-anchor="middle">SHOW</text>
<rect x="150" y="340" width="570" height="484" fill="#EAE2D3" stroke="#1C1811" stroke-width="2"/>
<text x="435" y="578" font-family="Crimson Pro" font-size="30" fill="#6F675A" text-anchor="middle">System outage occurred.</text>
<line x1="285" y1="608" x2="585" y2="608" stroke="#A99E8B" stroke-width="1"/>
<rect x="880" y="340" width="570" height="484" fill="#F1EBDF" stroke="#1C1811" stroke-width="2"/>
<clipPath id="showclip"><rect x="880" y="340" width="570" height="484"/></clipPath>
<g clip-path="url(#showclip)">
<rect x="1150" y="388" width="250" height="212" fill="#2B5C8E" opacity="0.07" stroke="#1C1811" stroke-width="2"/>
<line x1="1275.0" y1="388" x2="1275.0" y2="600" stroke="#1C1811" stroke-width="1.4"/>
<line x1="1150" y1="494.0" x2="1400" y2="494.0" stroke="#1C1811" stroke-width="1.4"/>
<clipPath id="winclip"><rect x="1150" y="388" width="250" height="212"/></clipPath>
<g clip-path="url(#winclip)">
<line x1="1426" y1="587" x2="1415" y2="617" stroke="#2B5C8E" stroke-width="1.6" opacity="0.4"/>
<line x1="1148" y1="379" x2="1137" y2="409" stroke="#2B5C8E" stroke-width="1.6" opacity="0.4"/>
<line x1="1389" y1="536" x2="1378" y2="566" stroke="#2B5C8E" stroke-width="1.6" opacity="0.4"/>
<line x1="1338" y1="433" x2="1327" y2="463" stroke="#2B5C8E" stroke-width="1.6" opacity="0.4"/>
<line x1="1318" y1="505" x2="1307" y2="535" stroke="#2B5C8E" stroke-width="1.6" opacity="0.4"/>
<line x1="1310" y1="396" x2="1299" y2="426" stroke="#2B5C8E" stroke-width="1.6" opacity="0.4"/>
<line x1="1264" y1="453" x2="1253" y2="483" stroke="#2B5C8E" stroke-width="1.6" opacity="0.4"/>
<line x1="1354" y1="599" x2="1343" y2="629" stroke="#2B5C8E" stroke-width="1.6" opacity="0.4"/>
<line x1="1424" y1="490" x2="1413" y2="520" stroke="#2B5C8E" stroke-width="1.6" opacity="0.4"/>
<line x1="1268" y1="423" x2="1257" y2="453" stroke="#2B5C8E" stroke-width="1.6" opacity="0.4"/>
<line x1="1141" y1="365" x2="1130" y2="395" stroke="#2B5C8E" stroke-width="1.6" opacity="0.4"/>
<line x1="1274" y1="435" x2="1263" y2="465" stroke="#2B5C8E" stroke-width="1.6" opacity="0.4"/>
<line x1="1248" y1="574" x2="1237" y2="604" stroke="#2B5C8E" stroke-width="1.6" opacity="0.4"/>
<line x1="1293" y1="494" x2="1282" y2="524" stroke="#2B5C8E" stroke-width="1.6" opacity="0.4"/>
<line x1="1203" y1="364" x2="1192" y2="394" stroke="#2B5C8E" stroke-width="1.6" opacity="0.4"/>
<line x1="1231" y1="391" x2="1220" y2="421" stroke="#2B5C8E" stroke-width="1.6" opacity="0.4"/>
<line x1="1288" y1="600" x2="1277" y2="630" stroke="#2B5C8E" stroke-width="1.6" opacity="0.4"/>
<line x1="1339" y1="402" x2="1328" y2="432" stroke="#2B5C8E" stroke-width="1.6" opacity="0.4"/>
<line x1="1407" y1="551" x2="1396" y2="581" stroke="#2B5C8E" stroke-width="1.6" opacity="0.4"/>
<line x1="1358" y1="577" x2="1347" y2="607" stroke="#2B5C8E" stroke-width="1.6" opacity="0.4"/>
<line x1="1366" y1="549" x2="1355" y2="579" stroke="#2B5C8E" stroke-width="1.6" opacity="0.4"/>
<line x1="1240" y1="595" x2="1229" y2="625" stroke="#2B5C8E" stroke-width="1.6" opacity="0.4"/>
<line x1="1428" y1="397" x2="1417" y2="427" stroke="#2B5C8E" stroke-width="1.6" opacity="0.4"/>
<line x1="1364" y1="531" x2="1353" y2="561" stroke="#2B5C8E" stroke-width="1.6" opacity="0.4"/>
<line x1="1273" y1="486" x2="1262" y2="516" stroke="#2B5C8E" stroke-width="1.6" opacity="0.4"/>
<line x1="1282" y1="582" x2="1271" y2="612" stroke="#2B5C8E" stroke-width="1.6" opacity="0.4"/>
</g>
<circle cx="985" cy="470" r="46" fill="#EAE2D3" stroke="#1C1811" stroke-width="2.6"/>
<circle cx="985" cy="470" r="3" fill="#1C1811"/>
<line x1="985" y1="470" x2="1004.3" y2="459.5" stroke="#1C1811" stroke-width="3.4" stroke-linecap="round"/>
<line x1="985" y1="470" x2="994.9" y2="439.6" stroke="#1C1811" stroke-width="2.4" stroke-linecap="round"/>
<text x="985" y="546" font-family="DM Mono" font-size="17" letter-spacing="1" fill="#1C1811" text-anchor="middle">2:03 A.M.</text>
<line x1="880" y1="712" x2="1450" y2="712" stroke="#1C1811" stroke-width="2"/>
<path d="M 925 660 h 60 v 34 a 30 14 0 0 1 -60 0 Z" fill="#EAE2D3" stroke="#1C1811" stroke-width="2.4"/>
<path d="M 985 666 q 26 8 0 26" fill="none" stroke="#1C1811" stroke-width="2.4"/>
<path d="M 943 648 q 10 -14 0 -28" fill="none" stroke="#2B5C8E" stroke-width="2.2" opacity="0.6"/>
<path d="M 963 648 q 10 -14 0 -28" fill="none" stroke="#2B5C8E" stroke-width="2.2" opacity="0.6"/>
<rect x="1072" y="608" width="156" height="98" rx="5" fill="#2B5C8E" opacity="0.16" stroke="#1C1811" stroke-width="2.4"/>
<rect x="1090" y="622" width="96" height="6" rx="3" fill="#2B5C8E" opacity="0.65"/>
<rect x="1090" y="636" width="116" height="5" rx="2" fill="#2B5C8E" opacity="0.4"/>
<polygon points="1072,706 1228,706 1246,712 1054,712" fill="#D2C9B8" stroke="#1C1811" stroke-width="2.4"/>
<rect x="1314" y="628" width="52" height="78" rx="8" fill="#EAE2D3" stroke="#1C1811" stroke-width="2.4"/>
<rect x="1323" y="640" width="34" height="22" rx="2" fill="#D2C9B8"/>
<circle cx="1340" cy="690" r="4" fill="none" stroke="#1C1811" stroke-width="1.6"/>
<path d="M 1310 654 q -16 10 0 34" fill="none" stroke="#2B5C8E" stroke-width="2.2" opacity="0.7"/>
<path d="M 1296 648 q -22 14 0 46" fill="none" stroke="#2B5C8E" stroke-width="2" opacity="0.4"/>
<path d="M 1370 654 q 16 10 0 34" fill="none" stroke="#2B5C8E" stroke-width="2.2" opacity="0.7"/>
<path d="M 1384 648 q 22 14 0 46" fill="none" stroke="#2B5C8E" stroke-width="2" opacity="0.4"/>
</g>
<rect x="66" y="66" width="1468" height="1068" fill="none" stroke="#1C1811" stroke-width="1.3"/>
<line x1="81" y1="92" x2="103" y2="92" stroke="#1C1811" stroke-width="1"/><line x1="92" y1="81" x2="92" y2="103" stroke="#1C1811" stroke-width="1"/>
<line x1="1497" y1="92" x2="1519" y2="92" stroke="#1C1811" stroke-width="1"/><line x1="1508" y1="81" x2="1508" y2="103" stroke="#1C1811" stroke-width="1"/>
<line x1="81" y1="1108" x2="103" y2="1108" stroke="#1C1811" stroke-width="1"/><line x1="92" y1="1097" x2="92" y2="1119" stroke="#1C1811" stroke-width="1"/>
<line x1="1497" y1="1108" x2="1519" y2="1108" stroke="#1C1811" stroke-width="1"/><line x1="1508" y1="1097" x2="1508" y2="1119" stroke="#1C1811" stroke-width="1"/>
<text x="118" y="98" font-family="DM Mono" font-size="15" letter-spacing="3" fill="#1C1811">FIG. X</text>
<text x="1482" y="98" font-family="DM Mono" font-size="15" letter-spacing="2" fill="#6F675A" text-anchor="end">Nº 10 / XIII</text>
<line x1="118" y1="1074" x2="1482" y2="1074" stroke="#1C1811" stroke-width="0.8"/>
<text x="118" y="1104" font-family="DM Mono" font-size="17" letter-spacing="5" fill="#1C1811">SHOW, DON'T TELL</text>
<text x="1482" y="1104" font-family="DM Mono" font-size="12.5" letter-spacing="2" fill="#6F675A" text-anchor="end">SAME EVENT — ONE REPORTS, ONE LETS YOU FEEL IT</text></svg>